<?xml version='1.0' encoding='utf-8'?>
<svg xmlns="http://www.w3.org/2000/svg" enable-background="new 0 0 5000 2740.7056" version="1.1" viewBox="0 0 5e3 2740.7"> <path d="m2486 460.21c33.214 34.576-21.225-22.605 338.94 356.46l106.06 0.3885c-373.74-403.49-412.94-439.88-413.75-441.76-2.7407-6.4484 0.0496-32.978 0.0637-41.569l0.2644-173.22 92.028 0.0742 0.1685-59.831-91.593-0.1015-0.4061-100.65-62.814 0.0729-0.2002 100.57-87.495-0.0434 0.0061 60.534 87.576-0.1616 0.2583 174.39c0.0117 5.9847 2.2651 32.993 0.2058 36.829-2.2117 4.1204-378.98 408.81-409.13 445.54l109.52-0.3073 330.29-357.21z"/> <path d="m3580.6 349.7c0.677 27.106-14.363 235.31-18.822 286.67-0.5217 5.7002-2.3779 13.827-0.2319 19.003 71.493 0.0522 51.621 0.1345 90.227-0.3073-19.879-294.69-21.221-286.51-18.185-319.68l44.577 319.8 77.089 0.1276-67.547-269.4c-60.24-224.85-66.308-235.85-65.198-278.35 5.4236-3.612 11.137-2.5651 17.373-2.2818 6.6711-4.1038 7.8018-4.9441 11.34-11.893-0.4641-9.1093-0.6963-9.276-6.9316-15.98-6.6128-1.7985-12.442-2.4199-19.316-2.4966-9.136-15.677 6.4675-28.624-16.764-38.284l-10.266 1.3493c-10.107 9.6808-9.0967 12.441-9.426 34.793-13.98 10.16-24.246-6.0939-29.989 19.329 2.7556 6.1411 3.6545 9.4611 10.354 12.284 5.3367 2.2521 12.935 2.21 18.706 2.6325 3.5964 10.391 2.6687 27.935 0.7251 38.815-4.3306 24.36 20.729-85.607-132.95 509.72l79.061-0.084c38.958-291.24 37.066-285.67 46.172-305.77z"/> <path d="m1356 307.65c2.725 30.443 0.2965 46.362-26.163 344.54l95.726 0.0436-24.614-339.29c14.658 56.118 21.15 122.22 46.918 339.61l82.872 0.1016-94.804-347.35c-15.594-59.236-53.464-174.88-42.277-198.12l13.463-0.9085c7.9117-1.7794 9.0082-4.0203 13.211-10.423-3.5818-24.833-21.964-7.5771-27.547-17.918-5.0059-9.2798 2.9813-17.658-7.3319-29.042-8.3354-1.6992-8.6921-1.2494-16.305 2.7138-6.0151 8.0285-5.2611 18.017-5.647 27.617l-16.949 0.7723c-5.1101 4.0036-5.7047 4.7034-7.816 10.825 5.0204 23.931 17.346 7.6557 27.912 19.33-2.0293 40.062-0.811 25.367-138.24 542.51l80.085-0.229 47.512-344.77z"/> <path d="m2485.5 494.29-195.97 213.13c-37.631 40.189-81.709 80.955-113.91 125.35 408.35 0.5148 261.91 0.5005 629.79-0.0405l-319.91-338.44zm39.268 277.25c-31.852 13.117-70.444 7.1332-97.746-13.873-38.766-29.826-47.285-87.634-22.64-127.67 21.451-34.846 66.418-53.364 106.19-43.73 39.769 9.6337 71.276 46.676 74.403 87.476 3.1271 40.8-22.367 82.211-60.203 97.793z"/> <path d="m2525.6 616.88c-35.801-21.766-81.489-6.7905-101.18 24.53-16.972 26.989-14.123 64.884 6.8306 88.943 20.277 23.283 55.74 31.93 84.42 20.438 29.118-11.668 48.964-43.227 46.866-74.526-1.6244-24.218-16.289-46.836-36.932-59.386zm7.875 78.821c-4.4375 13.433-14.678 25.042-27.866 30.302-42.101 16.791-82.701-31.989-58.493-70.347 10.753-17.038 32.994-25.908 52.52-20.946 23.941 6.0831 43.073 33.032 33.839 60.991z"/> <path d="m1591.5 708.99c-46.681-36.031-45.081-35.092-46.946-35.527-0.224-0.0521-60.033 0.2541-329-0.0057l-53.577 35.457c436.49 0.3705 359.87 0.4158 429.52 0.0753z"/> <path d="m3828.2 710.42c-50.087-37.03-45.696-34.896-48.841-36.098-0.9412-0.3615 25.552 0.1186-337.85-0.664l-54.844 37.675c444.38-1.1224 365.33-1.0021 441.54-0.9133z"/> <path d="m1198.3 1072 354.67-0.2058 0.4409-341.96-354.88-0.2988-0.2319 342.46zm213.75-36.75c-29.376 0.1625-14.565 0.1267-65.514 0.1479l-0.2205-154.87c-0.5858-35.793 8.4658-53.747 33.176-79.276 12.518 13.074 28.327 33.381 32.811 51.288 2.7494 10.974-0.6642 29.4-0.6642 41.346l0.412 141.37zm62.344-108.82-0.1364 109.48-32.7 0.3422-0.4119-147.14 32.187 0.2871c3.5846 7.8488 1.0645 27.991 1.0615 37.026zm-94.952-176.97c17.976 13.662 34.42 27.464 48.507 45.237 11.612 14.648 35.493 46.672 33.309 65.263-3.7832 0.6582-11.983 2.361-15.067-0.2319-13.062-10.973-3.8741-46.312-66.912-92.944-23.779 16.04-44.104 38.913-56.227 64.95-4.333 9.313-6.2153 19.348-11.282 28.339-6.717 0.0754-11.346 1.0903-17.251-2.5515 10.719-46.533 48.133-81.213 84.922-108.06zm-63.226 139.57 0.0638 146.06-33.948-0.116-0.0172-145.71 33.901-0.2319z"/> <path d="m3428.7 1072.7 360.5-0.0433 0.5801-343.24-362.59-0.0493 1.5083 343.34zm212.12-163.47-0.1157 129.53c-45.353-0.1914-28.773-0.2152-72.564 0.0551l-0.0872-122.81c0.0547-38.831-9.0596-72.166 36.05-112.62l6.4092-0.4495c15.516 14.411 26.643 36.339 29.612 51.079 3.3645 16.672 0.6961 37.985 0.6961 55.208zm61.573 130.01-33.672 0.0029 0.0291-146.57 33.992 0.0262-0.3485 146.54zm-180.54-189.86c11.021-48.392 44.809-77.415 85.122-101.81 25.465 13.218 52.263 39.238 66.387 64.078 5.6262 9.8552 18.068 34.744 15.023 46.066-4.9592 0.3478-12.79 2.0875-16.764-1.4788-1.9717-1.7435-3.5522-19.737-17.488-42.056-11.398-18.194-29.119-31.943-45.853-44.941-35.441 22.569-55.569 45.388-69.635 85.606-5.4236 3.1371-10.499 1.6642-16.329 0.7625-0.7247-2.215-0.9857-3.9141-0.4632-6.222zm18.706 42.996-0.4937 146.83-33.266-0.0292-0.0291-147.07 33.788 0.2668z"/> <path d="m2091.9 1541.7 49.763-0.0088 7.7319-2.2933-0.0027-699.86-48.942-0.0435-7.7583 1.4584c-2.0517 11.296-1.384-60.133-0.7917 700.75z"/> <polygon points="2828.8 838.95 2828.8 1541.9 2889.9 1541.9 2885.8 839.07"/> <path d="m1583.7 982.19-5.6584 1.6412-0.7859 5.68c3.3876 3.1748 5.989 4.0563 10.31 5.2596l0.5077 76.127c54.425-0.1497 35.786-0.151 82.257-0.0232-0.3833-70.876-1.4666-70.912 2.2881-77.351l8.8951-1.2844 2.4564-4.5435-3.6194-4.7175-8.6486-1.0408c-7.0303-12.036-10.47-29.299-14.707-42.79l-29.226-88.621-31.717 101.35c-1.6909 5.5959-4.7275 23.546-7.9438 27.655-0.3653 0.4698-4.2373 2.5747-4.4084 2.6559z"/> <polygon points="2174.2 887.43 2804.5 887.34 2804.2 855.92 2174.4 855.76"/> <path d="m3809.5 971.24c-2.6101 6.0336-2.7549 9.9654-2.0012 16.457 3.4517 2.7429 6.0908 3.9055 10.267 5.3408 3.8286 25.411 1.334 53.906 1.3052 79.688 56.232 0.0487 37.277 0.0452 83.673 0.0232 0.0872-15.944-4.4956-71.425 3.7703-81.396l6.8735-1.3105c1.5371-5.9149 2.1753-10.432 1.45-16.521-4.031-2.0208-7.9465-3.6996-12.21-5.1523-14.647-35.483-23.347-75.75-40.198-109.66l-2.9873-1.1685c-16.357 34.756-23.144 78.833-42.518 111.4l-7.4246 2.2964z"/> <path d="m1084.3 1072.2c52.424-0.1606 32.571-0.1234 86.874-0.1478-0.319-25.286-2.9844-52.903-0.1102-77.916l11.366-2.9313 1.7316-6.0917c-5.8296-6.1295-13.762-2.1688-17.306-7.2892-4.7705-6.8927-2.2246-3.4868-29.145-91.935-2.0071-6.5585-3.9531-19.498-9.2345-23.195-13.074 38.806-23.942 81.582-40.972 118.58-5.3829 0.5046-10.38 0.8292-15.464 2.7603l-0.4032 5.5756c4.536 1.8992 8.8632 2.9981 13.666 4.0245 2.4651 24.648-1.1978 53.288-1.0035 78.566z"/> <path d="m3314.6 991.57c5.7715 23.674 1.7402 56.49 1.7693 81.236 52.385-0.0453 34.827-0.0414 77.756-0.0232 0.0579-10.731-2.1172-76.478 1.885-80.236 2.3201-2.1892 4.0312-2.6792 7.0186-3.5547 0.9285-6.5441 1.8853-11.592-0.261-18.04l-9.542-2.5777c-15.861-30.576-25.45-85.583-36.978-98.033l-3.4512 0.0958c-14.583 29.706-32.703 94.036-35.876 97.157-1.7207 1.6946-9.2952 3.989-11.311 4.6448-0.9282 6.6745-2.0305 11.464 1.0149 17.8l7.9757 1.531z"/> <path d="m2805.1 1542-0.1741-630.08-630.57-1.0003-0.1973 630.98 630.94 0.0985zm-74.444-590.89-0.197 123.81-32.985-0.0291-0.064-123.62 33.246-0.1623zm-45.302 168.65 57.144 67.035c3.3352 4.0042 13.205 13.34 14.429 17.347 0.6252 2.053-0.0103-24.166 0.1538 311.88-86.842-0.1315-53.083-0.1201-148.33-0.0262 0.6226-320.36 0.4763-308.58 0.6003-308.98 1.2644-4.1693 11.491-14.402 14.768-18.498l55.682-68.038 5.5484-0.7162zm-79.685-169.77 32.753-0.0261 0.0813 125.24-33.298-0.2321 0.4639-124.98zm-90.792 0.5016 32.724 0.177-0.2119 124.52-32.671-0.0405 0.1594-124.66zm-90.958 0.2407 33.043 0.1913 0.1216 124.24-33.921 0.084 0.7571-124.52zm-7.0852 251.22c3.2568-11.818 60.018-72.866 71.259-86.003 66.992 83.562 67.676 83.211 67.828 89.024l-0.2583 310.93c-84.742-0.1254-52.959-0.1307-138.69-0.0029 0.3698-328.71-0.2774-313.46-0.1421-313.95zm-83.722-251.3 31.497 0.2117 0.0869 124.36-31.714-0.8147 0.1307-123.75zm-89.656-0.9422 31.143 0.6174-0.2263 124.7-31.044-0.0784 0.1276-125.24zm-26.129 254.88c2.2681-5.4103 12.004-14.433 15.998-19.293l53.51-64.168c20.502 21.441 39.534 45.379 58.226 68.432 3.5325 4.3607 12.056 12.296 13.663 16.936 0.5713 1.6506 0.1396-23.633 0.1479 309.44-81.965-0.0656-49.09-0.0552-141.16-0.0376-0.3019-323.9-0.664-310.64-0.3859-311.31z"/> <path d="m1689.8 1358c-0.3861 113.43-0.4011 94.27-0.1768 110.16 385.45-409 376.53-399.42 377.17-401.06 2.1287-5.4565 0.2466-23.102 0.3162-30.058 0.1628-70.888 0.282-105.45 0.1738-106.86l-273.16 286.01c-13.06 13.598-101.5 99.169-104.17 108.86-2.2303 8.075-0.1073 24.17-0.145 32.958z"/> <path d="m2913.5 937.81 0.145 110.54c0.0288 6.7238-2.2046 25.312 0.0579 30.954 1.3708 3.412 116.5 120.6 375.35 385.22l-0.5801-110.73c-0.0579-8.446 2.2913-26.562-0.1741-34.1-3.9228-11.889-347.5-355.11-374.8-381.88z"/> <path d="m3927.9 1161.6 0.2031-69.369-642.09-0.1102c-8.7007 11.432-3.9734 53.312-4.0024 69.334l645.89 0.1449z"/> <polygon points="1694.8 1093 1058.8 1092.8 1058.6 1158.6 1694.8 1158.3"/> <path d="m2067.7 1165.8-301.61 318.38c-12.668 13.253-71.894 69.471-74.751 78.943-2.2158 7.3472-0.0522 23.825-0.0697 31.969-0.1284 108.21-0.1943 96.219 0.0668 101.3 382.95-400.87 374.29-392.09 376.47-397.03 1.7632-3.9956 0.0203-20.824 0.0259-25.944 0.0832-115.65 0.1523-98.177-0.1246-107.62z"/> <path d="m3289.7 1559.2c-1.0999-3.6854-369.88-378.62-375.87-384.19l0.2026 96.131c0.0291 5.6133-1.8269 22.369 0.0583 26.918 2.1897 5.2871-22.208-20.57 375.53 396.49l0.0583-103.48c2e-4 -8.2053 2.2621-24.399 0.0292-31.868z"/> <polygon points="1083.1 1181.1 1081.7 1669.6 1188.8 1669.2 1189.2 1181"/> <path d="m1539.6 1181-327.47-0.1624 0.0144 488.52 327.76 0.4496-0.2958-488.8zm-183.69 459.06-80.236 0.0203c-3.0046-0.8351-4.6781-2.2123-7.0709-4.1696l-0.026-150.64c0.016-42.986-17.502-116.54 82.985-176.68l4.7711 2.5775-0.4235 328.89zm123.43-151.83-0.6729 151.53-88.908 0.4727 0.1422-334.57c17.268 10.128 34.707 21.496 48.777 35.875 51.661 52.783 40.774 105.32 40.662 146.69zm-106.86-220.33c-33.617 11.644-72.628 34.619-97.017 60.879-14.156 15.245-25.566 33.367-37.292 50.526l6.8854-22.966c21.946-60.83 70.833-85.307 125.38-110.67 19.702 6.5237 38.829 15.671 56.776 26.069 41.993 24.32 67.988 56.464 80.363 103.42-36.016-52.918-76.651-82.431-135.1-107.25z"/> <polygon points="1564.2 1181.2 1563.8 1669.5 1666 1669.4 1666.5 1181.4"/> <polygon points="3312.9 1181.4 3312.9 1671.6 3421.1 1671.9 3420.7 1181.3"/> <path d="m3444.6 1181.1-0.261 491.21 327.03 0.0288 0.0872-490.79-326.86-0.4495zm57.019 454.75c-0.2002-185.7-1.9497-200.81 5.5977-232.75 11.456-48.362 37.993-74.501 78.742-99.72l5.8003 1.4092 1.4504 334.81c-95.495-0.3239-83.745 0.9217-91.591-3.7464zm210.76-133.18-0.2034 137.08-86.572 0.177-0.1741-338.44c16.038 8.9478 30.946 19.058 43.881 32.16 51.051 51.644 43.069 121.97 43.069 169.03zm-2.4072-162.9c-23.927-37.017-64.821-57.623-102.35-78.056-20.853 10.812-42.866 21.415-61.66 35.593-39.928 30.156-64.252 76.47-69.548 122.05l-0.4646-18.617c12.957-93.601 44.834-119.23 131.58-162.03 26.044 13.32 55.279 26.542 77.466 45.953 21.984 19.235 43.794 64.976 45.447 94.588-7.3086-12.905-12.413-26.999-20.476-39.487z"/> <polygon points="3903.1 1181.4 3795.9 1181.3 3796.4 1672.9 3905.1 1673"/> <path d="m1690.9 2533.9c53.637 0.0605-6.9214 0.0039 374.52 0.3362l0.4321-887.17-39.496 0.0408 0.0872-105.39 41.387-0.0291 0.0115-208.32-302.87 322.74c-8.2889 8.6692-71.987 70.865-73.681 76.104-2.3754 7.3558-0.1102 24.738-0.1479 32.935-0.5517 141.32-0.4433-2.678-0.2408 768.76zm94.853-650.51c7.2943-43.497 54.661-91.376 89.282-115.26 41.636 24.889 84.123 83.085 91.303 114.66 1.7944 7.8906 0.9454-33.892 0.6147 553.27-107.71 0-66.267 0.0227-181.77-0.1133-0.255-585.22-0.4685-546.4 0.5656-552.56z"/> <path d="m3288.2 2532.4c0-75.336 3.6255-796.87 0.0581-805.15-1.0615-2.4407-57.064-56.703-374.68-392.89l0.29 207.46 41.184 0.0177-0.116 105.96-40.661-0.0319 0.667 884.76c388.31-0.0771 320.91-0.0473 373.26-0.1186zm-282.08-645.95c0.812-7.234 6.0615-15.834 9.4839-22.331 21.23-40.494 55.772-71.274 91.59-98.705 25.824 16.032 61.922 51.659 85.21 93.892 3.1902 5.7729 8.2944 12.166 9.5999 18.629 1.428 7.0073 0.8828-33.324 0.261 562.61-121.23 0.1018-76.764 0.0662-196.46 0.1567l0.3193-554.25z"/> <path d="m3927 1551.6c255.19 206.98 240.4 195.51 243.8 196.32 14.936 3.5431 39.966 0.3624 55.918 0.3683l166.16-0.2579-216.42-347.15-249.63 0.0029 0.1745 150.71z"/> <path d="m823.46 1743 234.63-196.76-0.1654-136.98-244.69 0.139-229.07 338.42c58.172 0.1831 221.48 6.0222 239.3-4.8216z"/> <path d="m2933.3 1564.3c-673.85-0.7583-477.52-0.8365-885.46 0.1566l-0.0057 60.964c678.17-1.1858 479.48-0.8579 885.55-1.4757l-0.087-59.644z"/> <polygon points="3927.5 1575.4 3927.5 1755.9 4147.4 1755.8"/> <path d="m1056.4 1640.6c0.0378-19.043 1.9171-40.395-0.7018-59.108l-125.72 104.52c-24.206 19.597-58.701 41.526-78.188 65.53l6.3632 2.7833 197.93 0.3508 0.319-114.07z"/> <polygon points="2091.2 2532.9 2150.6 2532.8 2150.2 1647.2 2090.8 1647.3"/> <path d="m2473.2 1696.3c23.112-9.0839 12.881-10.157 43.432 3.1545 63.988 27.896 118.83 69.865 167.69 119.07 55.192 58.818 89.899 122.64 120.99 196.43l-0.1157-367.86-630.8 0.0464 1.531 363.59c17.216-39.548 34.72-79.085 57.86-115.63 56.599-89.372 140.96-160.11 239.41-198.81z"/> <polygon points="2889.1 2532.9 2889.8 1647 2828.8 1647.1 2830.3 2532.8"/> <polygon points="1081.4 1766.3 1666.9 1765.6 1666.6 1693.1 1081.5 1693.1"/> <polygon points="3905.4 1693.4 3313.1 1693.3 3313.2 1766.6 3905.3 1767.4"/> <path d="m2803.7 2131.4c-13.557-155.75-111.21-313.06-270.49-396.2-12.547-6.5499-26.129-15.039-39.725-18.794l-7.8335 1.9484c-167.22 66.019-280.32 218.66-305.43 391.73-6.8191 47.024-4.3064 41.576-4.3359 421.97l65.05 0.0115-0.2898-239.23c-0.0403-53.326-3.8892-109.62 1.25-162.45 15.351-157.83 135.66-302.87 248.35-344.93l4.51 0.8727c140.03 69.252 233.24 208.06 247.06 352.57 3.6978 38.622 1.6101 17.225 1.4443 393.71l61.541 0.1448-0.4351-243.44c0.0577-51.865 3.8282-106.31-0.6671-157.92z"/> <path d="m4904.1 2654.4c-41.677-14.961-89.531-21.673-133.59-24.251l0.0874-35.396-122.86 0.5537c-8.2651 0.0376-27.088 2.6064-34.397 0.1567-3.4805-1.1746-10.47-8.5505-13.428-11.16-0.6128-492.12-1.3892-463.87 1.8276-484.68 7.6567-49.366 26.131-101.5 49.101-145.86 20.911 43.094 46.955 93.977 56.961 140.88 10.412 48.896 4.9014 106.07 5.0459 156.36 1.0742 351.42-1.2012 315.6 4.9019 321.7l20.592-0.2087c5.2041-6.0691 2.7422 53.777 4.2632-688.69l-158.67-0.2898 0.3477-89.848-173.46 0.0232-1.6528 778.83-181.56 0.7043 0.6084-367.85c0.1528-188.01-7.0469-180.22 37.327-287.88 10.76-26.138 21.23-53.341 34.281-78.404 25.552 51.984 54.438 105.84 67.257 162.59 11.747 51.856 5.6265 114.3 5.7139 167.61 0.7905 406.04-2.1138 381.26 3.9731 383.5 4.6982 1.7136 12.471 0.4116 17.518 0.1133 3.5967-7.4268 2.1704 46.104 1.5376-785.46l-198.15-0.3015 2.3203 786.33-3409 1.1482c-1.702-4.885-1.2168 51.925-1.0702-783.57l-197.06-0.0697c1.9495 816.84-4.3535 765.84 3.6862 775.82l19.33 0.4175c6.1609-6.7539 3.79 8.9641 3.7473-85.649-0.0211-372.47-2.3869-386.57 6.0933-444.97 9.1823-63.208 31.854-127.32 62.683-183.2 88.832 172.89 72.408 246.39 72.333 404.06l0.1942 332.1-183.71 0.519c-2.3143 3.978-3.634 7.4485-4.8405 11.882-25.351 1.5134-152.6-4.3579-162.95 4.0156l-2.3203 6.8513-192.23 1.3716-0.0116 32.117c-64.052 5.6074-145.85 18.814-189.63 70.978-11.026 13.138-18.569 27.452-25.221 43.109 1876.8 0.4062 856.74 0.4578 5e3 -0.2639-21.375-45.475-48.84-68.844-95.882-85.727zm-2916-67.519c9.4354-2.0435-58.686-1.0894 910.94-1.4556 30.859-0.0173 71.144-4.6768 100.93 1.2642 2.1169 6.6602 1.0149 11.853 0 18.571-24.014 4.9348-56.439 1.2292-81.265 1.2727-996.75 0.6108-924.98 0.4753-931.66-1.4556-1.3398-7.025-1.079-11.374 1.0558-18.197zm-91.959 48.969c37.24-3.7493 78.554-0.2119 116.12-0.1685 1076.7 1.0159 1067.1-1.7502 1080.5 2.6213 0.783 8.3503 1.1602 10.055-2.5811 17.423-27.671 1.6299-1149.1 0.3457-1149.4 0.345-14.696-0.0464-32.816 2.1948-46.891-1.7253-0.8759-8.1387-1.1689-10.739 2.2535-18.495zm1266.2 73.59c-84.002 0.228-1345.2 0.1758-1345.4 0.0842-1.6008-0.6582-2.9119-1.8674-4.3678-2.801l-0.5829-15.463c8.083-7.7791 62.144-3.7925 76.486-3.8591 113.46-0.7017 1262-5.3696 1276.7 2.2324 0.3193 7.7593 2.4077 13.746-2.8132 19.806zm1271.9-118.8c0.0439-586.35-1.3076-535.3 1.7114-551.12 11.601-60.714 41.821-121.84 69.084-177.06 8.6143 10.896 14.617 26.918 20.852 39.418 59.936 120.09 53.613 135.16 54.235 195.15 0.542 148.19 0.1797 41.756 1.6533 492.72-85.025 0.6934-51.509 0.4822-147.54 0.8931z"/> <polygon points="814.26 1843.9 1056.6 1844.1 1056.6 1776.6 814.26 1776.5"/> <polygon points="3926.9 1838.5 4171.2 1838.5 4171.1 1776.4 3927 1776.3"/> <path d="m1565.7 2534.2 101.39-0.1335-0.4784-744.84-585.18 0.4406 0.0029 744.59 99.798 0.0056-0.1248-257.25c-0.0229-117.3-23.902-259.66 96.66-380.31 28.373-28.394 59.128-46.606 94.174-65.73 64.282 34.292 117.08 77.772 152.81 142.39 54.909 108.43 41.629 180.69 41.506 271.22l-0.5596 289.62z"/> <path d="m3797.5 2532.3 107.02-0.2466 0.4351-743.71-591.74 0.4001-0.0874 743.71 106.67-0.0378 0.3772-263.69c0.2073-128.08-23.58-252.45 103.83-379.81 25.029-25.054 53.684-45.791 82.889-65.719 57.744 42.091 111.69 87.957 146.7 151.46 55.622 105.59 43.962 157.15 44.026 272.36l-0.116 285.28z"/> <path d="m419.22 2558.9 22.054 0.0845c3.9942-6.2502 2.7075 23.331 2.7118-367.5 0.0278-108.72-14.46-150.69 54.139-307.53 20.241 44.869 37.573 93.698 45.119 142.47 7.7831 50.276 4.1281 35.722 4.3707 499.91l-57.428 0.0059c1.1566-354.82-4.3754-429.04 2.3783-487.8 7.092-61.7 27.43-87.902 25.827-96.786-0.667-3.6997-12.61-16.434-15.609-19.856-51.686 123.94-38.342 165.9-38.458 293.92l-0.2088 345.13 109.78 0.4175-2.3869-768.57-151.5 0.3247-5.4496 2.5775c1.9967 819.98-2.3172 753.97 4.6607 763.2z"/> <path d="m2717.3 2144.3c-12.596-160.52-137.2-292.95-225.08-332.43l-7.0767 1.8005c-103.5 59.65-176.64 148.47-208.02 264.5-18.312 67.684-11.056 143.75-11.108 213.52l-0.1191 240.57 46.874-0.0203-0.4673-229.35c-0.0754-47.519-3.3611-97.963 0.9658-145.13 8.3035-90.518 49.069-175.27 112.78-239.75l53.542-45.237 0.3267 391.52-0.8489 6.9526h-53.988v27.088h53.988v233.95h22.187v-233.95h57.655v-27.088h-57.655c0-23.493-0.0371-391.91-0.0376-398.51 89.673 63.173 146.56 153.91 165.43 262.04 7.1338 40.905 4.5479 29.845 4.7156 397.85l46.782-0.0059-0.1279-240.87c-0.0523-48.464 3.0688-99.369-0.7075-147.46z"/> <path d="m3773.1 2532.2 0.145-278.87c0-56.846 6.3513-123.33-6.4673-178.6-14.299-61.839-46.173-119.19-90.837-164.1-19.2-19.319-44.838-44.373-68.301-58.374-42.368 32.44-140.05 91.29-161.57 248.34-6.3516 46.406-2.2039 98.305-2.2329 145.21l-0.0291 286.53c206.59 0.0036 131.4 0.0383 329.3-0.1331zm-126.02-593.79c45.273 45.037 74.943 104.71 82.193 168.29 4.7275 41.378 1.3921 85.968 1.5083 127.77l0.377 188.73-111.54-0.0232-0.1741-511.27 27.639 26.509zm-161.05 179.37c4.5828-83.376 44.664-148.82 105.45-203.51 3.0164 0.0521 2.958 0.722 5.1626 2.5776l-0.0583 506.32-104.41 0.0493-6.2065-2.6152c-4.582-35.648-0.8408-76.629-0.8408-112.8-0.0293-62.955-2.5815-127.2 0.8985-190.02z"/> <path d="m1374.9 1859.2-7.2245 0.9452c-191.07 115.19-162.99 269.2-162.93 412.78l0.1567 261.36c211.79 0.1042 134.71 0.1025 337.26 0.0259l0.2031-265.49c0.0227-106.09 19.436-242.09-87.591-349.58-24.191-24.297-51.036-41.905-79.879-60.039zm-119.88 561.64c-2.8248-0.864-4.4403-2.1396-6.7112-4.0012 0.0869-301.15-1.9702-298.74 4.7129-337.89 10.696-62.668 48.083-127.78 100.32-164.68l6.3457 1.4092 0.1305 505.15-104.8 0.0085zm240.87-185.29 0.1479 185.38-110.88 0.1423-0.2698-338.1c-0.0291-54.892-4.5912-114.3 1.2094-168.7 7.822 1.0381 22.526 17.04 28.539 23.042 97.57 97.37 81.211 210.37 81.254 298.23z"/> <polygon points="4171.8 2531.7 4171.2 1858.7 3927 1858.8 3927.1 2531.8"/> <polygon points="814.27 2533.9 1051.4 2533.8 1057.6 2530.2 1057 1866.3 814 1866.3"/> <path d="m735.15 2007.3c-6.4097-42.888-22.402-97.314-46.314-133.94-20.891 48.244-38.263 98.992-45.842 151.23-7.5122 51.783-3.8754 33.343-2.9091 523.19 66.82 0.3027 43.88 0.2297 101.16 0.3391-0.1574-487.02 2.8749-480.76-6.0963-540.82zm-16.297 471.02c0.0551 10.806 2.6336 28.258-2.4796 37.385-33.836 0.5552-21.302 0.481-54.687 0.2405l-0.5916-311.62c-0.1356-122.15-8.597-165.18 28.913-272.6 44.383 90.241 27.273 198.42 28.846 546.6z"/> <path d="m4354.1 2016.6c-7.7148-45.124-30.018-98.607-53.887-137.86-20.069 43.616-43.33 90.839-52.031 138.49-3.2075 17.62-2.1895-25.798-2.2329 536.07 78.255-0.2676 53.399-0.2102 110.91-0.2725 0-551.86 0.6782-516.35-2.7549-536.43zm-25.523 511.66c-34.803 0.6191-21.813 0.4988-56.728 0.5828l0.0288-344.29c0.271-180.85-6.1553-149.64 30.54-239.5 10.557 24.057 21.085 49.041 26.451 74.855 3.0894 14.852 2.2388 17.151 2.5229 126.79 0.0873 409.43 1.5561 374.75-2.8135 381.57z"/> <path d="m252.45 2571.7c7.7843 0.4641 15.63 1.4497 23.301-0.2463 6.3399-20.264 1.8794-55.724 1.949-77.485l0.4407-187.33c0.1791-163.59-12.893-189.49 63.623-349.65 34.735 68.264 31.748 64.178 53.8 128.65 0.989 3.0415 3.1873 12.83 5.4525 14.729l-0.2698-215.73-151.04-0.1013 0.6873 500.39c2e-4 25.414-4.4083 173.25 2.0593 186.77z"/> <path d="m4559.2 2030.7c-7.4829-42.332-29.119-91.602-52.872-127.16-19.896 37.374-42.837 81.599-49.942 123.66-2.7241 15.942-1.7729-30.029-1.4204 542.93 72.735 0.0071 48.598-0.0137 106.27 0.0811 0.2613-568.31 0.5904-524.62-2.0302-539.51zm-23.782 507.18c-0.5513 1.5598-2.146 2.5254-3.2192 3.7866-28.776 0.3909-17.084 0.3127-51.711 0.2986l0.3477-351.25c-0.0493-169.76-7.8511-148.81 27.553-225.48 35.326 74.593 26.962 72.306 27.146 209.13-1e-4 0.3246 0.2011 362.61-0.1158 363.51z"/> <path d="m4694 2098.8c-5.5396-33.335-23.231-81.161-43.881-107.69-15.951 33.494-32.251 66.168-39.124 103.01-4.3247 23.189-3.6045 3.5261-2.4365 478.49 58.335 0.0142 38.086 0.0269 89.212-0.0464l-0.2607-308.35c-0.0289-53.335 5.2201-112.9-3.5098-165.42zm-17.865 443c-0.667 1.4932-2.001 2.5774-2.9873 3.8677-18.698 0.3552-7.7451 0.3416-45.535-0.1072l-0.4639-301.01c-0.0474-143.85-7.0132-137.49 25.087-202.31 11.485 17.231 20.099 44.689 23 65.182 3.5963 25.361 2.0299 431.77 0.899 434.38z"/> <path d="m343.31 1994.9c-60.098 118.77-48.155 156.76-48.162 285.87l0.1392 291.27c71.968 0.1882 49.186 0.291 101.6-0.3623l0.7135-280.76c0.0598-117.38 13.48-197.66-54.29-296.02zm28.919 251.72c-0.4683 314.87 0.1191 291.29-2.8394 297.08-15.756 1.1772-5.2992 0.8896-49.09 0.8928l-0.203-271.49c-0.0412-81.241-8.9527-145.65 21.575-221.02 15.922 21.623 28.842 62.896 30.264 89.192 1.8764 34.756 0.2959 70.459 0.293 105.35z"/> </svg>