<?xml version="1.0" encoding="utf-8"?>
<!-- Generator: Adobe Illustrator 16.0.0, SVG Export Plug-In . SVG Version: 6.00 Build 0)  -->
<!DOCTYPE svg PUBLIC "-//W3C//DTD SVG 1.1//EN" "http://www.w3.org/Graphics/SVG/1.1/DTD/svg11.dtd">
<svg version="1.1" xmlns="http://www.w3.org/2000/svg" xmlns:xlink="http://www.w3.org/1999/xlink" x="0px" y="0px" width="612px"
	 height="792px" viewBox="0 0 612 792" enable-background="new 0 0 612 792" xml:space="preserve">
<g id="Background">
</g>
<g id="Theme_Set">
</g>
<g id="Design_Elements">
	<g>
		<path fill="#58595B" d="M482.589,421.654c-11.832-49.058-45.521-98.18-88.537-118.021c0.092-1.537,0.156-3.08,0.156-4.639
			c0-31.041-17.907-57.888-43.945-70.813c0.021-2.007,0.067-4.011,0.225-6.016c0.756-9.64,3.378-19.519,9.569-27.153
			c6.403-7.898,16.214-12.115,26.329-11.874c9.29,0.222,20.36,4.383,24.181,13.577c1.379,3.318,0.111,8.779-0.255,8.124
			c-2.561-4.582-7.756-7.391-13.324-6.684c-7.301,0.927-12.47,7.546-11.553,14.781c0.051,0.395,0.125,0.782,0.209,1.164
			c0.441,4.391,3.105,8.153,7.547,9.957c3.235,1.354,7.597,1.608,11.661-0.257c6.337-2.832,9.854-9.595,11.358-16.051
			c1.615-6.927,0.742-13.651-3.48-19.502c-5.661-7.842-15.394-12.207-24.783-13.39c-10.163-1.282-20.657,1.083-29.157,6.838
			c-13.944,9.443-19.742,25.333-21.78,41.35c-6.936-1.99-14.253-3.078-21.829-3.078c-8.031,0-15.777,1.207-23.08,3.434
			c-1.997-16.137-7.772-32.192-21.82-41.706c-8.5-5.756-18.994-8.12-29.157-6.838c-9.39,1.184-19.122,5.548-24.783,13.39
			c-4.223,5.851-5.096,12.575-3.48,19.502c1.504,6.456,5.021,13.219,11.358,16.051c4.064,1.865,8.426,1.611,11.661,0.257
			c4.441-1.804,7.105-5.566,7.547-9.957c0.084-0.382,0.158-0.769,0.209-1.164c0.917-7.235-4.252-13.854-11.553-14.781
			c-5.643-0.716-10.903,2.177-13.424,6.869c-0.324,0.6-1.534-4.992-0.155-8.31c3.82-9.194,14.891-13.355,24.181-13.577
			c10.115-0.241,19.926,3.976,26.329,11.874c6.191,7.634,8.813,17.513,9.569,27.153c0.174,2.223,0.217,4.447,0.233,6.674
			c-25.341,13.163-42.662,39.628-42.662,70.155c0,1.477,0.056,2.939,0.138,4.395c-43.677,19.391-77.851,68.677-89.811,118.266
			c-15.029,62.318,1.911,127.165,39.007,167.056c16.53-5.583,31.483-12.622,44.952-20.79c24.161,16.418,53.33,26.015,84.743,26.015
			c31.151,0,60.097-9.438,84.137-25.605c13.293,7.991,28.013,14.892,44.264,20.381C480.678,548.819,497.618,483.973,482.589,421.654
			z"/>
		<path fill="#FF7171" d="M482.589,421.654c-18.511-76.752-90.52-153.672-168.055-118.352
			c-77.826-34.458-149.544,41.6-168.055,118.352c-15.029,62.318,1.911,127.165,39.007,167.056
			c63.189-21.342,103.456-63.874,125.065-109.957c-18.757-49.449-19.777-121.121-4.571-148.047
			c-7.342,30.613-13.29,75.205,8.503,139.141c0.018-0.04,0.034-0.079,0.051-0.119c20.452,49.491,61.752,96.254,129.048,118.982
			C480.678,548.819,497.618,483.973,482.589,421.654z M186.004,541.391c-10.805,1.485-21.093-8.462-22.984-22.215
			c-1.885-13.753,5.339-26.104,16.144-27.589c10.803-1.483,21.087,8.466,22.977,22.216
			C204.03,527.557,196.805,539.907,186.004,541.391z M200.944,375.38c-9.179-5.889-10.541-20.136-3.046-31.82
			c7.502-11.682,21.015-16.379,30.194-10.491c9.177,5.89,10.536,20.133,3.039,31.816
			C223.637,376.571,210.118,381.267,200.944,375.38z M281.495,439.26c-1.749,13.772-14.43,23.504-28.321,21.74
			c-13.896-1.765-23.741-14.36-21.993-28.132c1.752-13.771,14.432-23.503,28.328-21.739
			C273.403,412.894,283.243,425.489,281.495,439.26z M373.016,461c-13.893,1.764-26.573-7.968-28.321-21.74
			c-1.748-13.771,8.092-26.366,21.986-28.131c13.896-1.764,26.576,7.968,28.327,21.739C396.757,446.64,386.911,459.235,373.016,461z
			 M396.783,364.886c-7.497-11.683-6.138-25.926,3.04-31.816c9.179-5.888,22.691-1.191,30.193,10.491
			c7.495,11.684,6.133,25.931-3.046,31.82C417.796,381.267,404.278,376.571,396.783,364.886z M464.896,519.176
			c-1.892,13.753-12.18,23.7-22.984,22.215c-10.801-1.483-18.025-13.834-16.136-27.588c1.89-13.75,12.175-23.699,22.978-22.216
			C459.557,493.072,466.78,505.423,464.896,519.176z"/>
	</g>
</g>
<g id="Watermark" opacity="0.6">
</g>
<g id="Label_Template" display="none">
</g>
</svg>
