<?xml version='1.0' encoding='utf-8'?>
<svg xmlns="http://www.w3.org/2000/svg" viewBox="0 0 1386.6 1381.1"> <defs> <filter id="b" x="-.11391" y="-.11747" width="1.2278" height="1.2349"> <feGaussianBlur stdDeviation="6.32921"/> </filter> <filter id="a" x="-1.0528" y="-.36727" width="3.1057" height="1.7346"> <feGaussianBlur stdDeviation="112.8153"/> </filter> </defs> <g transform="translate(402.24 269.88)" fill-rule="evenodd"> <path transform="matrix(.93315 -.0385 .0369 .89428 1733.2 -1218.9)" d="m-1357.6 2058.5-116.61-48.928-15.022 128.84-89.009-89.828-63.183 113.28-47.858-117.05-101.72 80.479 0.5792-126.46-124.78 35.425 48.928-116.61-128.84-15.022 89.828-89.009-113.28-63.183 117.05-47.858-80.479-101.72 126.46 0.5792-35.425-124.78 116.61 48.928 15.022-128.84 89.009 89.828 63.183-113.28 47.858 117.05 101.72-80.479-0.5791 126.46 124.78-35.425-48.928 116.61 128.84 15.022-89.828 89.009 113.28 63.183-117.05 47.858 80.479 101.72-126.46-0.5791z" fill="#008000"/> <path d="m281.69-187.76 3.9158 7.003c191.74 148.53 85.377 348.51-9.7894 572.1l7.8315 7.8315c-92.217-249.35-196.93-490.66-1.9579-586.93z" fill="#ff2a2a"/> <path d="m275.84-191.69h12.46c-243.72 199.12-21.779 403.99 0 606.38h-12.46c-20.17-204.34-277.62-434.76 0-606.38z" fill="#f00"/> <path d="m286.3-191.69h-12.46c243.72 199.12 21.779 403.99 0 606.38h12.46c20.17-204.34 277.62-434.76 0-606.38z" fill="#f00"/> <path d="m892.6 422.62-7.003 3.9158c-148.53 191.74-348.51 85.377-572.1-9.7894l-7.8315 7.8316c249.35-92.217 490.66-196.93 586.93-1.9579z" fill="#ff2a2a"/> <path d="m892.99 416.39v12.46c-199.12-243.72-403.99-21.779-606.38 0v-12.46c204.34-20.17 434.76-277.62 606.38 0z" fill="#f00"/> <path d="m892.99 426.84v-12.46c-199.12 243.72-403.99 21.779-606.38 0v12.46c204.34 20.17 434.76 277.62 606.38 0z" fill="#f00"/> <path d="m-328.69 422.62 7.0031 3.9158c148.53 191.74 348.51 85.377 572.1-9.7894l7.8315 7.8316c-249.35-92.217-490.66-196.93-586.93-1.9579z" fill="#ff2a2a"/> <path d="m-330.85 416.39v12.46c199.12-243.72 403.99-21.779 606.38 0v-12.46c-204.34-20.17-434.76-277.62-606.38 0z" fill="#f00"/> <path d="m-330.85 426.84v-12.46c199.12 243.72 403.99 21.779 606.38 0v12.46c-204.34 20.17-434.76 277.62-606.38 0z" fill="#f00"/> <path d="m281.69 1033.5 3.9158-7.0031c191.74-148.53 85.377-348.51-9.7894-572.1l7.8315-7.8315c-92.217 249.35-196.93 490.66-1.9579 586.93z" fill="#ff2a2a" stroke="#000" stroke-width=".53335"/> <path d="m275.84 1034h12.46c-243.72-199.12-21.779-403.99 0-606.38h-12.46c-20.17 204.34-277.62 434.76 0 606.38z" fill="#f00"/> <path d="m286.3 1034h-12.46c243.72-199.12 21.779-403.99 0-606.38h12.46c20.17 204.34 277.62 434.76 0 606.38z" fill="#f00"/> <path d="m-160.02-6.3412 2.2508 7.7013c-28.436 240.87 188.75 305.16 414.94 393.98l0.0973 11.075c-113.23-240.54-211.97-484.35-417.29-412.75z" fill="#ff2a2a"/> <path d="m-159.05-12.742-8.6806 8.9384c312.64-36.112 304.98 265.83 435 422.46l8.6806-8.9384c-132.54-156.83-118.47-502.05-435-422.46z" fill="#f00"/> <path d="m-166.33-5.2454 8.6806-8.9384c-26.951 313.56 274.64 297.08 435 422.46l-8.6806 8.9384c-160.64-127.89-505.3-103.73-435-422.46z" fill="#f00"/> <path d="m722.97-10.257-2.2508 7.7013c28.436 240.87-188.75 305.16-414.94 393.98l-0.0974 11.075c113.23-240.54 211.97-484.35 417.29-412.75z" fill="#ff2a2a"/> <path d="m720.84-14.7 8.6806 8.9384c-312.64-36.112-304.98 265.83-435 422.46l-8.6806-8.9384c132.54-156.83 118.47-502.05 435-422.46z" fill="#f00"/> <path d="m728.12-7.2033-8.6806-8.9384c26.951 313.56-274.64 297.07-435 422.46l8.6806 8.9384c160.64-127.89 505.3-103.73 435-422.46z" fill="#f00"/> <path d="m721.02 849.9-2.2508-7.7014c28.436-240.87-188.75-305.16-414.94-393.98l-0.0973-11.075c113.23 240.54 211.97 484.35 417.29 412.75z" fill="#ff2a2a"/> <path d="m718.88 853.3 8.6806-8.9384c-312.64 36.112-304.98-265.83-435-422.46l-8.6806 8.9384c132.54 156.83 118.47 502.05 435 422.46z" fill="#f00"/> <path d="m726.16 845.81-8.6806 8.9384c26.951-313.56-274.64-297.07-435-422.46l8.6806-8.9384c160.64 127.89 505.3 103.73 435 422.46z" fill="#f00"/> <path d="m-163.6 858.21 2.2508-7.7013c-28.436-240.87 188.75-305.16 414.94-393.98l0.0974-11.075c-113.23 240.54-211.97 484.35-417.29 412.75z" fill="#ff2a2a"/> <path d="m-157.09 855.26-8.6806-8.9385c312.64 36.112 304.98-265.83 435-422.46l8.6806 8.9384c-132.54 156.83-118.47 502.05-435 422.46z" fill="#f00"/> <path d="m-164.37 847.76 8.6806 8.9383c-26.951-313.56 274.64-297.07 435-422.46l-8.6806-8.9384c-160.64 127.89-505.3 103.73-435 422.46z" fill="#f00"/> <path transform="matrix(.69298 0 0 .69298 1050.7 110.29)" d="m-1070.8 393.4c30.112 20.549 37.343 60.878 16.151 90.077s-62.78 36.211-92.892 15.662-37.343-60.878-16.151-90.077c20.442-28.167 60.068-35.847 90.105-17.464" fill="#ff0" filter="url(#b)"/> <path transform="matrix(.48455 0 0 .48455 950.06 -917.15)" d="m-1306 1673.8c58.069 117.15 72.014 347.07 31.147 513.53-40.867 166.47-121.07 206.44-179.14 89.289s-72.014-347.07-31.147-513.53c39.422-160.58 115.84-204.37 173.76-99.564" fill="#ff8080" filter="url(#a)"/> <path transform="matrix(.48455 0 0 -.48455 958.37 1758.5)" d="m-1306 1673.8c58.069 117.15 72.014 347.07 31.147 513.53-40.867 166.47-121.07 206.44-179.14 89.289s-72.014-347.07-31.147-513.53c39.422-160.58 115.84-204.37 173.76-99.564" fill="#ff8080" filter="url(#a)"/> <path transform="matrix(0 .48455 .48455 0 -1049.5 1099)" d="m-1306 1673.8c58.069 117.15 72.014 347.07 31.147 513.53-40.867 166.47-121.07 206.44-179.14 89.289s-72.014-347.07-31.147-513.53c39.422-160.58 115.84-204.37 173.76-99.564" fill="#ff8080" filter="url(#a)"/> <path transform="matrix(0 .48455 .48455 0 -282.53 1099)" d="m-1306 1673.8c58.069 117.15 72.014 347.07 31.147 513.53-40.867 166.47-121.07 206.44-179.14 89.289s-72.014-347.07-31.147-513.53c39.422-160.58 115.84-204.37 173.76-99.564" fill="#ff8080" filter="url(#a)"/> <path transform="matrix(.2724 .40073 .40073 -.2724 150.95 1233.5)" d="m-1306 1673.8c58.069 117.15 72.014 347.07 31.147 513.53-40.867 166.47-121.07 206.44-179.14 89.289s-72.014-347.07-31.147-513.53c39.422-160.58 115.84-204.37 173.76-99.564" fill="#ff8080" filter="url(#a)"/> <path transform="matrix(-.2724 .40073 -.40073 -.2724 431.2 1244.5)" d="m-1306 1673.8c58.069 117.15 72.014 347.07 31.147 513.53-40.867 166.47-121.07 206.44-179.14 89.289s-72.014-347.07-31.147-513.53c39.422-160.58 115.84-204.37 173.76-99.564" fill="#ff8080" filter="url(#a)"/> <path transform="matrix(-.2724 -.40073 -.40073 .2724 428.43 -381.06)" d="m-1306 1673.8c58.069 117.15 72.014 347.07 31.147 513.53-40.867 166.47-121.07 206.44-179.14 89.289s-72.014-347.07-31.147-513.53c39.422-160.58 115.84-204.37 173.76-99.564" fill="#ff8080" filter="url(#a)"/> <path transform="matrix(.2724 -.40073 .40073 .2724 156.49 -369.99)" d="m-1306 1673.8c58.069 117.15 72.014 347.07 31.147 513.53-40.867 166.47-121.07 206.44-179.14 89.289s-72.014-347.07-31.147-513.53c39.422-160.58 115.84-204.37 173.76-99.564" fill="#ff8080" filter="url(#a)"/> </g> </svg>