<?xml version='1.0' encoding='utf-8'?>
<svg xmlns="http://www.w3.org/2000/svg" enable-background="new 0 0 720 720" version="1.1" viewBox="0 0 720 720"> <style type="text/css">.st0{fill:#FEFEFE;} .st1{fill:#FEDF91;} .st2{fill:#211915;} .st3{fill:#CD2121;} .st4{fill:#FCFCFC;}</style> <path d="m677.1 403.1c-0.8 1.6-0.6 3.4-0.9 5.1-3.2 19.1-13 34.2-28.6 45.5-11.4 8.2-24.2 12.9-38 15.2-22.4 3.6-44.3 0.8-65.8-5.5-27.1-7.8-52-20.5-75.6-35.7-4.2-2.7-8.3-5.5-12.5-8.3-0.4-0.3-0.8-0.7-1.5-0.7 3.7 4.6 7.4 9 11 13.5 15.5 19.6 29.2 40.3 39.4 63.1 6.7 14.8 11.8 30.2 14.2 46.3 2.9 19.1 2.2 38-5.2 56.1-8.3 20.3-22.5 34.6-43.4 41.8-5.7 1.9-11.6 2.9-17.6 3.2-2.2 0.1-4.4 0.2-6.6 0-19.6-1.1-36-9.4-50-22.8-14.8-14.2-24.4-31.8-31.2-51-5.6-15.8-8.8-32-10.7-48.6-1.6-13.9-2-27.7-1.8-41.7 0.1-8.6 0.7-17.2 1.3-25.8 0.2-0.5 0.1-0.9 0.1-1.4 0-0.1 0.1-0.3-0.1-0.3-0.1 0-0.2 0.2-0.3 0.3-9.1 26-20.3 51-35.5 74-12.4 18.8-27 35.6-45.5 48.6-12.3 8.6-25.6 15-40.4 17.6-23.5 4.2-44.7-0.7-62.6-17.1-11.7-10.7-18.4-24.2-20.8-39.8-2.9-18.9 1-36.7 9.1-53.8 8.3-17.5 20.1-32.3 34-45.6 20-19.2 43.1-34.2 67.6-47 5.1-2.7 10.3-5.1 15.5-7.7 0.2-0.6-0.2-0.3-0.4-0.3-5.9 1-11.8 2-17.7 2.8-13.7 2-27.4 3.3-41.2 3.6-11.4 0.3-22.8-0.1-34.1-1.4-23.4-2.7-45.7-8.5-65.9-21.1-13.9-8.6-25.3-19.7-32.9-34.3-4.7-8.9-7.3-18.4-7.9-28.5-0.2-0.6-0.1-1.2-0.1-1.8v-4.1c0.1-0.7-0.1-1.4 0.1-2.1 1.8-22.3 12.1-39.7 30.3-52.5 11.8-8.3 25.1-12.8 39.4-14.8 21.6-3.1 42.7-0.2 63.5 5.8 24 6.9 46.2 17.8 67.5 30.6 7.1 4.3 14 8.9 20.9 13.6 0.3 0.2 0.6 0.6 1.4 0.6-1.8-2.1-3.4-4.1-5-6-16.4-19.7-31-40.6-42.3-63.7-7.8-15.9-13.8-32.4-16.9-49.9-3.2-18.5-3.2-36.8 2.9-54.7 6.1-18 16.9-32.3 33.8-41.6 8.8-4.9 18.2-7.5 28.3-8.1 0.7-0.2 1.4-0.1 2-0.1h3.9c0.7 0 1.4-0.1 2.1 0.1 17.1 1.1 31.8 7.8 44.8 18.7 11.6 9.7 20.3 21.7 27.2 35.1 8.7 16.9 13.9 35 17.2 53.7 3.5 20.2 4.4 40.5 3.8 61-0.2 7.6-0.7 15.3-1.3 22.9-0.1 0.2-0.1 0.4 0 0.7l0.3-0.3c11.4-32.6 26-63.6 47.7-90.8 12.9-16.1 27.8-30 46.1-39.8 13.8-7.3 28.3-11.3 44-11.3 29.9 0.1 56.7 20.2 65 48.9 4.9 16.9 3.7 33.7-1.8 50.3-5.6 16.9-15 31.7-26.6 45.1-16.6 19.2-36.4 34.5-58 47.7-12.2 7.5-24.9 14.2-37.8 20.3 0 0.7 0.4 0.4 0.7 0.3 5.9-0.9 11.7-2 17.6-2.8 13.8-2 27.6-3.3 41.5-3.6 11.2-0.2 22.4 0.1 33.6 1.4 24.8 2.8 48.5 9.2 69.5 23.3 13 8.7 23.5 19.8 30.4 34 3.8 7.7 6 15.9 6.8 24.4 0 0.3-0.1 0.7 0.3 0.8v2c-0.4 1.9-0.1 3.8-0.2 5.7 0.1 0.7-0.2 1.5 0.2 2.2-0.3 0.1-0.3 0.3-0.3 0.5z"/> <path class="st0" d="m391.4 210.6c-0.1 16.6-1.3 33.1-3.3 49.5-2 16.1-4.7 32.1-8 48-0.2 1.1-0.6 1.3-1.6 1.2-10.5-0.8-19.7 2.3-27.8 8.9-0.8 0.7-1.3 0.8-2.1 0-23.1-21.1-44.7-43.5-63.4-68.6-13.7-18.3-25.6-37.7-34.3-58.9-5.4-13.1-9.5-26.7-11.3-40.8-2.4-18.4-1.2-36.5 6.9-53.5 8.4-17.5 21.6-29.6 40.7-34.6 14.4-3.7 28.4-1.7 41.7 4.5 14.2 6.6 25.2 17.1 34 29.9 10.2 14.8 16.7 31.3 21.1 48.7 4.2 16.6 6.3 33.6 7.1 50.7 0.2 5 0.2 10 0.3 15z"/> <path class="st0" d="m536.9 110c13.9 0.2 28.4 5.2 40.5 16.7 9.3 8.9 15 19.8 17.4 32.4 3.5 17.6 0.2 34.3-7.1 50.4-6.8 15-16.5 28-27.9 39.7-19.7 20.4-42.9 36-67.8 49.3-24 12.8-49.1 23-74.9 31.7-1.7 0.6-3.5 1.1-5.1 1.7-0.8 0.3-1.1 0.2-1.5-0.6-4.7-9.7-12-16.3-22.2-20-0.8-0.3-1-0.6-0.8-1.4 7.8-35.6 18.2-70.3 34-103.2 10.1-20.9 22.2-40.5 37.8-57.7 11.2-12.3 23.8-22.8 38.8-30.1 11.5-5.6 23.5-8.9 38.8-8.9z"/> <path class="st0" d="m512.6 558.9c0 17.4-2.9 31.9-10.7 45.1-9 15.3-21.8 25.7-39.3 29.8-14.1 3.3-27.7 1.2-40.8-4.9-15.5-7.3-27-19.1-36.1-33.4-9.5-14.9-15.5-31.2-19.5-48.3-3.9-16.6-5.8-33.4-6.4-50.5-0.7-19.4 0.5-38.7 2.6-57.9 2-17.3 4.9-34.4 8.4-51.4 0.2-0.9 0.4-1.4 1.6-1.3 10.5 0.8 19.7-2.2 27.8-8.9 0.8-0.7 1.2-0.9 2.1 0 20.5 18.7 39.8 38.6 57.1 60.4 15.8 19.9 29.5 41.1 39.6 64.6 5.6 13 9.8 26.4 12 40.4 1.1 6 1.7 12.2 1.6 16.3z"/> <path class="st0" d="m541.9 316.1c20 0.1 39.7 2.1 59 7.8 15 4.4 29 10.9 41.2 20.9 12.7 10.4 22 23.2 25.8 39.4 4.7 20.7-0.3 38.9-14.6 54.5-11 12.1-25.1 18.7-41 22-17.1 3.6-34.2 2.7-51.2-0.8-27.5-5.6-52.8-17-76.8-31.1-24.3-14.3-46.6-31.3-68-49.6-2.9-2.5-5.8-5.1-8.7-7.6-0.7-0.6-0.9-1-0.3-1.9 5.8-8.7 8-18.2 6.2-28.5-0.2-1.1 0-1.6 1.2-1.9 22.7-7.2 45.7-13.2 69.1-17.4 18.2-3.2 36.4-5.3 54.9-5.4 1.1-0.3 2.1-0.4 3.2-0.4z"/> <path class="st0" d="m209.2 379.1c-20 0.1-39.8-1.9-59.1-7.7-15.2-4.5-29.3-11.1-41.6-21.3-12.2-10.2-21.2-22.6-25-38.2-4.8-19.9-0.5-37.7 12.7-53.3 10.8-12.7 24.9-19.9 41-23.6 14.4-3.3 29-3.2 43.6-1.2 21.3 3 41.3 10 60.7 19.1 26.7 12.6 50.9 29 74.1 47.1 9.6 7.6 19 15.5 28.1 23.7 0.6 0.5 1 0.9 0.4 1.8-6.1 8.9-8.1 18.6-6.2 29.2 0.2 1-0.2 1.1-0.9 1.3-13.7 4.3-27.4 8.2-41.4 11.6-15.7 3.8-31.6 6.8-47.6 8.8-11.4 1.4-22.9 2.4-34.4 2.5-1.6 0.2-3 0.2-4.4 0.2z"/> <path class="st0" d="m154.9 522.9c0.1-13.9 3.5-26.4 9.2-38.4 6.6-14 15.6-26.2 26.2-37.3 20.1-21.1 43.9-37.1 69.5-50.7 23.2-12.3 47.4-22.1 72.2-30.6 2.4-0.8 4.9-1.6 7.3-2.5 0.7-0.2 1-0.2 1.4 0.6 4.7 9.7 12.1 16.5 22.3 20.1 1.2 0.4 0.7 1.2 0.6 1.9-1.9 8.5-3.9 16.9-6.1 25.3-6.2 23.6-13.8 46.7-23.8 69-9.5 21.1-20.9 41.1-35.6 59.1-12 14.6-25.7 27.1-42.5 36-12.4 6.5-25.5 10.2-39.6 10.2-28.5-0.1-52.2-18.7-58.9-46.5-0.7-2.7-1.1-5.5-1.4-8.3-0.6-3-0.8-5.7-0.8-7.9z"/> <path class="st1" d="m406.7 347.6c0.1 16.8-13.9 30.9-30.5 31.2-16.7 0.3-31.2-12.8-31.8-30-0.6-17.4 13.2-32 30.5-32.2 17.7-0.2 31.7 13.6 31.8 31z"/> <path class="st2" d="m297.9 471.2c17.3 30.8 0.9 68.8-33.3 77.4-29.1 7.3-58.9-12-64.2-41.6-5.1-28.3 12.8-55.1 40.7-61.2 4.5-1 9.1-1.2 13.8-1.1 0.5 0 1.1 0.1 1.6-0.1 0.7 2.3 2 4.2 3.9 5.7 0.2 0.2 0.3 0.5 0.1 0.7-1.4 0.3-2.8-0.2-4.2-0.3-14.3-0.8-26.8 3.4-37.1 13.6-7.7 7.7-12.3 16.9-13.4 27.7-1.8 17.4 4.5 31.5 18.1 42.5 0.3 0.2 0.6 0.5 0.9 0.8 0.4 0.7-0.1 1.2-0.5 1.8-0.5 0.7-0.4 1.3 0.4 1.6s1.4 1.5 2.4 0.4c0.4-0.4 0.6-1.1 1.3-1.1 0.9 0.1 1.7 0.6 2.4 1 7.7 4 15.8 5.7 24.4 5.1 11.3-0.8 21-5.1 29.2-13 8.3-8 13.1-17.8 14.2-29.2 0.9-9.7-0.9-18.9-5.9-27.5l-1.8-3c-0.3-0.5-0.8-1-0.3-1.6 0.4-0.2 0.9-0.1 1.3 0 1.6 0.6 3.2 1 4.9 1 0.5 0 0.8 0.1 1.1 0.4z"/> <path d="m297.9 471.2c-2.6 0.4-4.9-0.6-7.3-1.3-2.6-0.7-4.8-2.3-7.1-3.7-2-1.2-3.9-2.4-5.8-3.7-0.6-0.4-1-0.5-1.5 0.3-6.2 9.9-12.4 19.8-18.6 29.6-7.5 11.9-15 23.7-22.4 35.6-1.9 3.1-3.8 6.2-5.8 9.2-0.2 0.4-0.5 0.7-0.9 1 0 0-0.1 0-0.1 0.1-1.5 2-1.5 1.9-3.7 0.8-1.1-0.6-1.4-1.1-0.5-2.1 0.4-0.4 0.6-0.9 0.9-1.4-0.2-0.6 0.2-1.1 0.4-1.5 7-11.1 14-22.2 21-33.4 8-12.8 16.2-25.5 24.2-38.4 1.9-3.1 1.9-3.1-1.2-5.1-2.6-1.6-5.2-3.1-7.6-4.9-0.5-0.4-1.1-0.6-1.1-1.3-0.9-0.9-2-1.6-2.8-2.7s-1.2-2.3-1.2-3.6c0.1-1.9 1.3-3.1 2.7-4.1 3.9-2.8 8.5-3.8 13.2-4 16.3-0.5 24.8 11.7 27.7 22.1 0.8 2.7 1.2 5.4 0.8 8.1-0.6 2-1.4 3.5-3.3 4.4z"/> <path class="st3" d="m228.3 538.2c1.3-2.8 3.1-5.3 4.8-7.9 14.2-22.6 28.4-45.1 42.6-67.6 0.7-1.1 1.1-1.2 2.2-0.5 4.1 2.8 8.4 5.3 12.7 7.7 3.3 5.1 6 10.5 7.4 16.4 6.4 26.1-10.9 52.8-37.3 57.5-10.8 1.9-21.1 0.3-30.8-4.8-0.5-0.3-1.1-0.5-1.6-0.8z"/> <path class="st3" d="m260.5 451c3.6 2.7 7.4 5 11.2 7.3 1.1 0.7 1.1 1.2 0.5 2.2-15.7 24.8-31.4 49.7-47 74.5l-0.3 0.6c-3.3-1.8-5.8-4.5-8.2-7.2-6.1-7-9.9-15.1-11.1-24.2-1.8-13.3 1.4-25.4 9.7-35.9s19.3-16.4 32.5-17.7c4.2-0.6 8.5-0.4 12.7 0.4z"/> <path class="st4" d="m274.9 446.6c-1.7 0-3.1-1.3-3.1-3s1.3-3.1 3-3.1 3.1 1.3 3.1 3-1.3 3.1-3 3.1z"/> <path class="st4" d="m292.8 452.5c0 1.7-1.3 3-3 3s-3.1-1.4-3-3.1c0-1.6 1.4-3 3.1-3 1.6 0 2.9 1.4 2.9 3.1z"/> <path d="m288.3 478.8c0 5.1-3.9 8.9-9 8.9-5 0-8.9-3.9-8.9-8.9 0-5.1 3.9-9 9-9s8.9 3.9 8.9 9z"/> <path d="m292 516.2c0.1 4.9-3.7 8.9-8.7 9.1-4.8 0.2-9-3.8-9.2-8.7s3.8-9.2 8.7-9.3c5.1-0.2 9.1 3.7 9.2 8.9z"/> <path d="m252.7 524.3c5 0 9.1 4 9.1 9s-4 9-9.1 9c-5 0-9.1-4.1-9-9 0.1-5 4.1-9 9-9z"/> <path d="m222.1 471.2c5 0 9 4.1 8.9 9.1 0 5-4.1 9-9.1 8.9-4.9 0-8.9-4.2-8.9-9.2 0.1-4.8 4.2-8.8 9.1-8.8z"/> <path d="m247.5 465.2c0-5.1 4-9.1 9.1-9.1 4.8 0 8.9 4.2 8.9 9 0 4.9-4 9-8.9 9-5 0.1-9.1-3.9-9.1-8.9z"/> <path d="m231 515c0 5-3.8 9-8.8 9-5.1 0.1-9.2-3.9-9.2-9 0-4.8 4-8.9 8.7-9 5.3 0 9.2 3.8 9.3 9z"/> </svg>