<?xml version='1.0' encoding='utf-8'?>
<svg xmlns="http://www.w3.org/2000/svg" viewBox="0 0 640 480"> <g fill="#a31d7b" fill-rule="evenodd" stroke-linecap="round" stroke-linejoin="round"> <g stroke="#a50"> <path d="m458.24 148.43c132.45-88.049-155.19-221.2-146.29-62.403 15.398 274.68-90.353 104.28 156.1 226.54 142.48 70.68 113.97-245-19.103-157.89-230.19 150.68-135.48-26.108-118.14 248.46 10.028 158.73 269.16-23.801 127.19-95.49-245.58-124.01-45.131-130.39-274.24 21.921-132.45 88.049 155.19 221.2 146.29 62.403-15.398-274.68 90.353-104.28-156.1-226.54-142.48-70.68-113.97 245 19.103 157.89 230.19-150.68 135.48 26.108 118.14-248.46-10.028-158.73-269.16 23.801-127.19 95.49 245.58 124.01 45.131 130.39 274.24-21.921z" stroke-width="2.437"/> <path d="m378.97 239a57.969 57.969 0 1 1-115.94 0 57.969 57.969 0 1 1 115.94 0z" stroke-opacity=".431" stroke-width=".793"/> </g> <path d="m263.83 248.59a57.969 57.969 0 0 1 82.265-61.847l-25.095 52.256-57.17 9.5912z" stroke-width=".793"/> </g> <ellipse cx="318" cy="240" rx="75" ry="74" fill="#00bf00" stroke="#191919" stroke-width="5"/> </svg>