<?xml version='1.0' encoding='utf-8'?>
<svg xmlns="http://www.w3.org/2000/svg" viewBox="0 0 237.52 244.55"> <g fill-rule="evenodd"> <path d="m105.09 97.601c-2.3834-9.9024-7.7716-26.441-11.88-38.768-0.56317-1.6894-1.2506-3.3349-1.8759-5.0023-2.4061-6.4162-2.8325-13.206-4.377-19.384-1.0725-4.29 0.46136-9.5948 1.8758-13.131 2.6844-6.7111 5.3108-10.938 10.005-15.632 2.7053-2.7053 5.6521-3.9142 10.005-5.0023 3.827-0.95676 8.3019-0.6253 12.506-0.6253 4.2035 0 10.005 7.5037 12.506 10.005 3.1035 3.1035 4.6788 3.73 6.8782 8.1288 2.106 4.212 1.3671 9.2199 2.5012 13.756 0.80246 3.2098 0 7.912 0 11.255 0 4.64-1.3865 9.2978-2.5012 13.756-1.1387 4.555-1.4064 8.7523-2.5012 13.131-0.93478 3.7392-1.5767 6.932-2.5012 10.63-0.93796 3.7518-2.3476 4.6951-3.7517 7.5035-1.368 2.7359-1.8258 6.0524-2.5012 8.7541-0.79373 3.175-4.2322 3.6794-6.8782 5.0023-2.142 1.071-7.3342-0.27032-8.754-0.62528-2.5852-0.6463-5.8213-2.5786-8.7541-3.7517z" fill="#7f007f"/> <path d="m113.81 95.499c-1.5728-9.3581-5.1283-24.988-7.8398-36.637-0.37161-1.5966-0.82523-3.1516-1.2378-4.7274-1.5877-6.0635-1.8691-12.48-2.8883-18.318-0.70773-4.0542 0.30444-9.0674 1.2378-12.409 1.7714-6.3422 3.5046-10.337 6.6019-14.773 1.7852-2.5566 3.7297-3.699 6.6019-4.7274 2.5254-0.90418 5.4783-0.59091 8.2524-0.59091 2.7738 0 6.602 7.0912 8.2524 9.4547 2.0479 2.9329 3.0875 3.525 4.5388 7.682 1.3897 3.9805 0.9021 8.7132 1.6504 13 0.52954 3.0334 0 7.4772 0 10.637 0 4.385-0.91495 8.7868-1.6504 13-0.75146 4.3046-0.9281 8.2712-1.6505 12.409-0.61685 3.5336-1.0405 6.551-1.6505 10.046-0.61893 3.5456-1.5491 4.437-2.4757 7.091-0.90268 2.5855-1.2048 5.7198-1.6505 8.2729-0.52377 3.0005-2.7928 3.4771-4.5388 4.7274-1.4135 1.0122-4.8397-0.25546-5.7766-0.59091-1.7059-0.61078-3.8414-2.4369-5.7767-3.5455z" fill="#fff" fill-opacity=".208"/> <path d="m90.966 113.76c-8.4098-5.7457-23.5-14.398-34.816-20.784-1.5509-0.87524-3.1644-1.6345-4.7466-2.4518-6.0883-3.1448-10.959-7.8944-16.248-11.441-3.673-2.4624-6.0937-7.4257-7.4166-10.997-2.5106-6.778-3.3982-11.675-3.0654-18.305 0.19183-3.8211 1.5665-6.6942 4.0648-10.421 2.1966-3.2766 5.7378-6.0324 8.8558-8.8522 3.1176-2.8195 12.454-1.1456 15.986-0.96826 4.3835 0.22006 5.9721-0.37192 10.554 1.4152 4.3872 1.7113 7.1983 5.9212 11.082 8.525 2.7482 1.8424 5.3071 5.8682 7.5496 8.3477 3.1123 3.4413 5.2083 7.826 7.3722 11.88 2.2107 4.1421 4.8276 7.4347 6.9528 11.417 1.8148 3.4003 3.4804 6.1989 5.2751 9.5616 1.8209 3.4118 1.4082 5.0569 2.2505 8.0817 0.82059 2.9467 2.7057 5.7136 4.0169 8.1703 1.541 2.8872-0.67096 5.5677-1.746 8.3237-0.87027 2.2312-5.6209 4.719-6.912 5.4081-2.3509 1.2547-6.0471 1.9922-9.0092 3.0893z" fill="#7f007f"/> <path d="m96.024 106.35c-7.4435-5.8857-20.564-15.093-30.389-21.914-1.3465-0.93488-2.726-1.7839-4.089-2.6759-5.2448-3.4322-9.7573-8.0022-14.43-11.649-3.2444-2.5322-5.8563-6.9293-7.4057-10.034-2.9403-5.892-4.3346-10.018-5.0127-15.385-0.39087-3.0936 0.28506-5.2452 1.7255-7.9344 1.2665-2.3645 3.6668-4.1129 5.7242-5.9737 2.0572-1.8606 9.6531 0.83096 12.462 1.4769 3.4862 0.80158 4.6543 0.54343 8.5191 2.653 3.7007 2.0201 6.5136 5.8572 9.9442 8.5349 2.4274 1.8946 5.0154 5.5456 7.1346 7.8888 2.9412 3.2522 5.2153 7.1306 7.496 10.749 2.33 3.6966 4.8596 6.757 7.0996 10.311 1.9127 3.0346 3.6225 5.5566 5.5141 8.5576 1.9192 3.0448 1.8273 4.33 2.9202 6.9198 1.0648 2.5231 2.943 5.0503 4.325 7.2429 1.6242 2.5767 0.26096 4.4522-0.19537 6.5506-0.36945 1.6988-3.7608 3.0568-4.6808 3.4365-1.6749 0.69128-4.4836 0.76926-6.6626 1.2452z" fill="#fff" fill-opacity=".208"/> <path d="m97.572 134.89c-9.9086 2.3576-26.461 7.7028-38.799 11.78-1.6909 0.55875-3.3381 1.2419-5.0072 1.8628-6.4224 2.3894-13.213 2.7981-19.395 4.3266-4.2928 1.0613-9.5936-0.48633-13.126-1.91-6.7041-2.7018-10.925-5.3392-15.606-10.045-2.6983-2.7123-3.8995-5.6622-4.9763-10.018-0.94679-3.8294-0.6037-8.3035-0.59277-12.507 0.010925-4.2035 7.5296-9.9853 10.037-12.48 3.1116-3.0954 3.7422-4.6691 8.1466-6.8571 4.2175-2.095 9.2234-1.343 13.763-2.4654 3.2119-0.7941 7.912 0.020569 11.255 0.029266 4.64 0.012085 9.2942 1.4107 13.75 2.5369 4.552 1.1506 8.7486 1.4292 13.124 2.5353 3.7367 0.94452 6.9279 1.5947 10.623 2.5288 3.7494 0.94772 4.689 2.3598 7.4937 3.7712 2.7323 1.3751 6.0476 1.8415 8.7475 2.5239 3.173 0.802 3.6684 4.2418 4.9844 6.8912 1.0655 2.1448-0.2894 7.3334-0.64807 8.7524-0.65302 2.5835-2.5937 5.8145-3.7745 8.7443z" fill="#7f007f"/> <path d="m95.493 126.16c-9.3622 1.5484-25.001 5.0634-36.657 7.7445-1.5976 0.36746-3.1537 0.81705-4.7306 1.2256-6.0677 1.572-12.485 1.8366-18.326 2.8407-4.056 0.6972-9.0666-0.328-12.406-1.2701-6.3376-1.7879-10.328-3.5314-14.756-6.6403-2.552-1.7918-3.6893-3.7394-4.7102-6.6142-0.8976-2.5277-0.57666-5.4798-0.56944-8.2539 0.007202-2.7738 7.1084-6.5836 9.4761-8.2278 2.9382-2.0403 3.533-3.0783 7.6937-4.5188 3.9841-1.3794 8.7155-0.87946 13.004-1.6167 3.0348-0.52164 7.4771 0.01944 10.636 0.027649 4.3849 0.011414 8.7844 0.9378 12.996 1.6843 4.3026 0.76263 8.2687 0.94962 12.405 1.6827 3.532 0.62604 6.5483 1.0575 10.041 1.6766 3.544 0.62817 4.433 1.5607 7.0846 2.4942 2.5832 0.90939 5.7166 1.2196 8.2686 1.672 2.9992 0.53159 3.4698 2.8018 4.7156 4.5511 1.0085 1.4161-0.26804 4.839-0.60593 5.7751-0.6152 1.7044-2.4469 3.835-3.5606 5.7674z" fill="#fff" fill-opacity=".208"/> <path d="m127.2 96.626c4.5389-9.1179 11.041-25.251 15.817-37.335 0.65448-1.6562 1.1854-3.3586 1.7782-5.0379 2.2808-6.4618 6.318-11.937 9.1059-17.663 1.9358-3.9758 6.5205-7.0538 9.877-8.8537 6.37-3.4158 11.099-4.9662 17.712-5.545 3.8113-0.33365 6.8458 0.63431 10.88 2.5983 3.5467 1.7268 6.7618 4.857 9.9823 7.559 3.2202 2.7018 2.8415 12.179 3.15 15.702 0.38275 4.3723 1.1869 5.8648 0.044464 10.648-1.0939 4.5804-4.8788 7.9419-6.9258 12.146-1.4484 2.9748-5.0854 6.0613-7.2342 8.6224-2.9823 3.5546-7.0384 6.2317-10.758 8.9308-3.8 2.7575-6.7029 5.8009-10.356 8.4518-3.1195 2.2637-5.6634 4.2971-8.7484 6.5357-3.13 2.2713-4.8162 2.088-7.697 3.3368-2.8065 1.2167-5.2888 3.4631-7.5428 5.0987-2.6488 1.9222-5.6071 0.098419-8.4844-0.58878-2.3294-0.5563-5.4448-4.9211-6.3044-6.1056-1.565-2.1567-2.8021-5.717-4.2949-8.5008z" fill="#7f007f"/> <path d="m135.23 100.62c4.8101-8.1799 12.132-22.439 17.542-33.106 0.74152-1.462 1.3935-2.9448 2.0902-4.4172 2.681-5.6656 6.5895-10.762 9.5615-15.89 2.0637-3.5608 6.0613-6.7507 8.9244-8.7109 5.4335-3.72 9.329-5.6666 14.553-7.0739 3.0109-0.81113 5.2348-0.43646 8.0961 0.62186 2.5158 0.93048 4.5766 3.0685 6.7018 4.8515 2.1249 1.7829 0.49982 9.6759 0.24496 12.547-0.31622 3.5632 0.099579 4.6849-1.4605 8.8023-1.4938 3.9426-4.9093 7.2548-7.0915 11.02-1.544 2.6642-4.8059 5.7281-6.8366 8.1484-2.8184 3.3592-6.3486 6.1433-9.6203 8.8984-3.3424 2.8146-6.0273 5.7398-9.2404 8.4456-2.7438 2.3106-5.0078 4.3498-7.7212 6.6349-2.7531 2.3184-4.0387 2.4034-6.4544 3.841-2.3534 1.4005-4.5993 3.6074-6.5818 5.2768-2.3298 1.962-4.3744 0.86865-6.5156 0.70422-1.7334-0.13315-3.5434-3.3064-4.0456-4.1656-0.91431-1.5644-1.3765-4.3358-2.1465-6.4291z" fill="#fff" fill-opacity=".208"/> <path d="m139.69 107.83c9.8568-2.5652 26.294-8.257 38.543-12.592 1.6788-0.59418 3.3113-1.3118 4.967-1.9676 6.3708-2.5238 13.151-3.0751 19.3-4.7331 4.2696-1.1513 9.6017 0.28467 13.163 1.6338 6.7594 2.5605 11.034 5.1086 15.814 9.7152 2.7546 2.6551 4.0176 5.5791 5.1856 9.9109 1.027 3.8087 0.77802 8.289 0.85541 12.492 0.077393 4.2028-7.3182 10.141-9.7727 12.688-3.0458 3.1601-3.6433 4.7467-8.0008 7.0267-4.1726 2.1832-9.1932 1.5365-13.708 2.754-3.1945 0.86139-7.9107 0.14563-11.253 0.20718-4.6392 0.085419-9.3218-1.2152-13.8-2.2475-4.5751-1.0547-8.7767-1.2451-13.175-2.259-3.7557-0.86581-6.9599-1.4488-10.674-2.305-3.7684-0.86874-4.7376-2.2607-7.5713-3.613-2.7606-1.3174-6.085-1.714-8.7986-2.3396-3.1891-0.73517-3.7566-4.1638-5.1281-6.7849-1.1103-2.122 0.13528-7.3379 0.46405-8.7641 0.59857-2.5966 2.471-5.8677 3.5899-8.8216z" fill="#7f007f"/> <path d="m141.95 116.51c9.3276-1.7448 24.889-5.5874 36.486-8.5129 1.5895-0.40094 3.1359-0.88309 4.7038-1.3246 6.0333-1.6991 12.443-2.0985 18.262-3.2251 4.0405-0.78226 9.0715 0.13745 12.43 1.0092 6.3738 1.6544 10.4 3.3137 14.892 6.3289 2.589 1.7378 3.7671 3.661 4.8481 6.5138 0.9505 2.5083 0.69165 5.4665 0.74271 8.2401 0.051086 2.7733-6.9684 6.7314-9.3012 8.425-2.8947 2.1016-3.4676 3.1519-7.5971 4.6795-3.9542 1.4627-8.6951 1.0624-12.968 1.8895-3.0232 0.58527-7.4759 0.13763-10.635 0.1958-4.3842 0.080719-8.8022-0.75302-13.028-1.4109-4.3177-0.67209-8.2869-0.7757-12.438-1.4218-3.5444-0.5517-6.5691-0.91968-10.074-1.4652-3.5564-0.55359-4.4648-1.4672-7.1354-2.3448-2.6017-0.85492-5.741-1.0993-8.3018-1.4979-3.0096-0.46844-3.528-2.7283-4.8101-4.451-1.038-1.3946 0.16632-4.8436 0.48447-5.7866 0.57925-1.7169 2.3658-3.8856 3.4386-5.841z" fill="#fff" fill-opacity=".208"/> <path d="m105.74 147.68c-1.7876 10.027-6.1784 26.858-9.5437 39.408-0.46124 1.7201-1.0492 3.4036-1.5737 5.1054-2.0186 6.5485-2.0387 13.351-3.2115 19.611-0.81436 4.3464 1.0337 9.5502 2.6568 12.996 3.0805 6.5388 5.9547 10.602 10.92 15.007 2.8621 2.5389 5.8758 3.5696 10.286 4.3958 3.8773 0.72644 8.3244 0.1283 12.521-0.1228 4.1959-0.25104 9.5388-8.0878 11.886-10.734 2.9126-3.2833 4.4477-4.0028 6.3804-8.5251 1.8507-4.3303 0.81393-9.2852 1.675-13.881 0.60931-3.252-0.4726-7.898-0.67227-11.235-0.27713-4.6317-1.9394-9.1985-3.3183-13.582-1.4088-4.4788-1.9267-8.6526-3.281-12.958-1.1565-3.6766-1.9879-6.8255-3.1316-10.462-1.1604-3.6891-2.6238-4.5465-4.1932-7.266-1.5289-2.6493-2.184-5.9326-3.0196-8.589-0.98196-3.122-4.4444-3.42-7.1647-4.5826-2.2022-0.94119-7.305 0.70789-8.7011 1.147-2.5419 0.79953-5.6568 2.9217-8.5143 4.2679z" fill="#7f007f"/> <path d="m114.57 149.26c-1.011 9.4354-3.6267 25.25-5.6375 37.04-0.27557 1.6159-0.63553 3.1952-0.95328 4.7929-1.2228 6.1475-1.1204 12.569-1.789 18.458-0.46432 4.0893 0.84549 9.0331 1.9768 12.313 2.1471 6.225 4.1157 10.109 7.4725 14.352 1.9347 2.4454 3.944 3.4697 6.8725 4.3246 2.5748 0.75171 5.5038 0.26263 8.273 0.096924 2.7688-0.16565 6.1667-7.4728 7.6729-9.9307 1.8691-3.05 2.8714-3.7031 4.0719-7.9393 1.1495-4.0565 0.38007-8.7515 0.87103-13.076 0.34741-3.0596-0.44659-7.4638-0.63532-10.618-0.2619-4.3771-1.4381-8.7165-2.424-12.878-1.0072-4.252-1.4205-8.201-2.3887-12.289-0.82681-3.4905-1.4299-6.4772-2.2475-9.9291-0.82962-3.5023-1.8114-4.3366-2.8949-6.9305-1.0555-2.527-1.5442-5.6376-2.1417-8.1595-0.70206-2.9639-2.9955-3.3041-4.813-4.4478-1.4714-0.9259-4.8158 0.5441-5.731 0.93491-1.6664 0.71158-3.6889 2.662-5.5546 3.8842z" fill="#fff" fill-opacity=".208"/> <path d="m91.251 128.97c-8.4098 5.7457-23.5 14.398-34.816 20.784-1.5509 0.87528-3.1644 1.6346-4.7467 2.4518-6.0883 3.1448-10.959 7.8944-16.248 11.441-3.673 2.4624-6.0937 7.4257-7.4166 10.997-2.5106 6.778-3.3982 11.675-3.0654 18.305 0.19183 3.8211 1.5665 6.6942 4.0648 10.421 2.1966 3.2766 5.7378 6.0324 8.8558 8.8522 3.1176 2.8195 12.454 1.1456 15.986 0.96826 4.3835-0.22006 5.9721 0.37192 10.554-1.4152 4.3872-1.7113 7.1983-5.9212 11.082-8.525 2.7482-1.8424 5.3071-5.8681 7.5496-8.3477 3.1123-3.4414 5.2083-7.826 7.3722-11.88 2.2107-4.1421 4.8276-7.4347 6.9528-11.417 1.8148-3.4003 3.4804-6.1989 5.2752-9.5616 1.8209-3.4118 1.4082-5.0569 2.2505-8.0816 0.82059-2.9467 2.7057-5.7136 4.0169-8.1703 1.541-2.8873-0.67099-5.5677-1.746-8.3237-0.87027-2.2312-5.6209-4.719-6.912-5.4081-2.3509-1.2547-6.0471-1.9922-9.0092-3.0893z" fill="#7f007f"/> <path d="m96.308 136.38c-7.4435 5.8857-20.564 15.093-30.389 21.914-1.3466 0.93488-2.726 1.7839-4.089 2.6758-5.2448 3.4322-9.7573 8.0022-14.43 11.649-3.2443 2.5322-5.8563 6.9293-7.4056 10.034-2.9403 5.8921-4.3346 10.018-5.0127 15.385-0.39087 3.0936 0.28503 5.2452 1.7255 7.9344 1.2665 2.3645 3.6667 4.1129 5.7242 5.9736 2.0572 1.8606 9.653-0.83093 12.462-1.4769 3.4862-0.80154 4.6543-0.54343 8.5191-2.653 3.7007-2.0201 6.5135-5.8572 9.9442-8.5348 2.4274-1.8946 5.0154-5.5456 7.1346-7.8889 2.9412-3.2522 5.2153-7.1306 7.496-10.749 2.33-3.6966 4.8596-6.757 7.0996-10.311 1.9127-3.0346 3.6225-5.5566 5.5141-8.5576 1.9192-3.0449 1.8273-4.33 2.9202-6.9199 1.0648-2.5231 2.943-5.0503 4.325-7.2428 1.6242-2.5767 0.26096-4.4522-0.19537-6.5506-0.36945-1.6988-3.7608-3.0568-4.6808-3.4365-1.6749-0.69128-4.4836-0.76929-6.6626-1.2452z" fill="#fff" fill-opacity=".208"/> <path d="m129.77 151.22c5.6403 8.4809 14.103 23.678 20.348 35.072 0.85586 1.5617 1.5949 3.1846 2.3924 4.7769 3.0686 6.127 7.757 11.056 11.237 16.39 2.4164 3.7035 7.3491 6.1858 10.904 7.5532 6.7462 2.595 11.632 3.5436 18.265 3.2936 3.8232-0.14416 6.7133-1.4828 10.471-3.9344 3.3037-2.1556 6.1035-5.6621 8.962-8.7446 2.8582-3.0822 1.3009-12.438 1.1677-15.973-0.16534-4.3859 0.44641-5.967-1.2834-10.571-1.6565-4.4083-5.8309-7.2716-8.3861-11.188-1.808-2.771-5.8015-5.3799-8.2528-7.6532-3.4022-3.155-7.7604-5.3055-11.788-7.5199-4.1142-2.2622-7.3739-4.92-11.329-7.0947-3.3774-1.8571-6.155-3.5575-9.495-5.394-3.3888-1.8633-5.0389-1.4712-8.0529-2.3512-2.9362-0.85727-5.6794-2.7767-8.1196-4.1185-2.8678-1.5769-5.5756 0.60144-8.3448 1.642-2.2418 0.84238-4.7888 5.5616-5.494 6.844-1.2839 2.335-2.0675 6.0218-3.2015 8.9699z" fill="#7f007f"/> <path d="m137.24 146.26c5.7924 7.5164 14.835 20.751 21.533 30.66 0.918 1.3581 1.7497 2.7481 2.6246 4.1221 3.3665 5.2872 7.8798 9.8564 11.468 14.574 2.4915 3.2757 6.8557 5.9424 9.9408 7.5303 5.8549 3.0136 9.9626 4.4593 15.321 5.2043 3.0885 0.42944 5.2484-0.21957 7.9554-1.6264 2.3801-1.2369 4.1583-3.6151 6.0446-5.6492 1.8861-2.0339-0.71042-9.6627-1.3213-12.48-0.758-3.4959-0.48529-4.6607-2.5465-8.5515-1.9737-3.7256-5.7755-6.5861-8.4101-10.05-1.8642-2.4509-5.4826-5.0842-7.7992-7.2325-3.2152-2.9816-7.065-5.3039-10.655-7.6296-3.6672-2.376-6.6959-4.9436-10.221-7.2277-3.0105-1.9504-5.511-3.6916-8.4882-5.6205-3.0207-1.957-4.3068-1.8811-6.8829-3.0063-2.5096-1.0962-5.0132-3.0059-7.1883-4.4151-2.5562-1.6562-4.4486-0.3165-6.5526 0.11362-1.7033 0.34821-3.1035 3.7224-3.4946 4.6375-0.71213 1.6662-0.82516 4.4736-1.3282 6.6466z" fill="#fff" fill-opacity=".208"/> </g> <path d="m155.99 122.05a35.954 35.954 0 1 1-71.908 0 35.954 35.954 0 1 1 71.908 0z" fill="#ff0"/> </svg>