<?xml version='1.0' encoding='utf-8'?>
<svg xmlns="http://www.w3.org/2000/svg" viewBox="0 0 744.09 1052.4"> <path transform="matrix(2.4951 1.2936e-8 -5.1699e-9 2.2682 1659.8 -1678.6)" d="m-434.5 1104.8a65.549 65.549 0 1 1-131.1 0 65.549 65.549 0 1 1 131.1 0z"/> <path transform="matrix(1.7642 -7.3377e-9 7.3377e-9 1.7642 1170.4 -1438.9)" d="m-434.5 1104.8a65.549 65.549 0 1 1-131.1 0 65.549 65.549 0 1 1 131.1 0z"/> <path transform="matrix(-.18033 1.4963 -1.7346 -.15556 2584.8 1282)" d="m-54.312 1295.8a178.86 162.94 0 1 1-58.021-120.13l-120.84 120.13z" fill="#db7093"/> <path transform="matrix(1.1829 7.8935e-9 -7.8935e-9 1.1829 560.5 -857.1)" d="m-356.36 1076.7c-3.7464 6.3384-11.362-1.1151-12.358-5.4938-2.6274-11.546 9.2773-20.163 19.631-20.271 17.669-0.1845 29.452 17.302 28.184 33.768-1.8225 23.672-25.388 38.894-47.905 36.097-29.665-3.6844-48.4-33.493-44.01-62.043 5.4827-35.658 41.607-57.939 76.18-51.923 41.654 7.2479 67.497 49.726 59.836 90.317-1.2284 6.5088-3.2501 12.864-5.9922 18.893" fill="none" stroke="#000" stroke-miterlimit="4.1" stroke-width="9.8"/> <path transform="matrix(-1.1348 .45628 .46288 1.1512 -544.67 -731.73)" d="m-356.36 1076.7c-3.7464 6.3384-11.362-1.1151-12.358-5.4938-2.6274-11.546 9.2773-20.163 19.631-20.271 17.669-0.1845 29.452 17.302 28.184 33.768-1.8225 23.672-25.388 38.894-47.905 36.097-29.665-3.6844-48.4-33.493-44.01-62.043 5.4827-35.658 41.607-57.939 76.18-51.923 41.654 7.2479 67.497 49.726 59.836 90.317-1.2284 6.5088-3.2501 12.864-5.9922 18.893" fill="none" stroke="#000" stroke-miterlimit="4.1" stroke-width="9.8"/> <path transform="matrix(1.7642 -7.3377e-9 7.3377e-9 1.7642 1130.8 -906.96)" d="m-413.9 1000.9a27.156 27.156 0 1 1-54.312 0 27.156 27.156 0 1 1 54.312 0z"/> <path transform="matrix(1.095 -1.0777e-8 1.0777e-8 1.095 658.87 -499.88)" d="m-413.9 1000.9a27.156 27.156 0 1 1-54.312 0 27.156 27.156 0 1 1 54.312 0z"/> <path transform="matrix(1.095 -1.0777e-8 1.0777e-8 1.095 1012.4 -318.16)" d="m-413.9 1000.9a27.156 27.156 0 1 1-54.312 0 27.156 27.156 0 1 1 54.312 0z"/> <path transform="matrix(1.095 -1.0777e-8 1.0777e-8 1.095 794.33 -552.75)" d="m-413.9 1000.9a27.156 27.156 0 1 1-54.312 0 27.156 27.156 0 1 1 54.312 0z"/> <path transform="matrix(2.0075 -1.576e-8 1.576e-8 2.0075 1317.4 -1388.4)" d="m-413.9 1000.9a27.156 27.156 0 1 1-54.312 0 27.156 27.156 0 1 1 54.312 0z"/> <path transform="matrix(-1.9467 2.1831e-9 -2.2314e-8 2.0075 -689.29 -1180.2)" d="m-413.9 1000.9a27.156 27.156 0 1 1-54.312 0 27.156 27.156 0 1 1 54.312 0z"/> <path transform="matrix(-.70788 2.2652e-8 -1.8568e-9 .73001 -54.307 -25.534)" d="m-413.9 1000.9a27.156 27.156 0 1 1-54.312 0 27.156 27.156 0 1 1 54.312 0z"/> <path transform="matrix(-.70788 2.2652e-8 -1.8568e-9 .73001 289.31 -48.662)" d="m-413.9 1000.9a27.156 27.156 0 1 1-54.312 0 27.156 27.156 0 1 1 54.312 0z"/> <path transform="matrix(-.70788 2.2652e-8 -1.8568e-9 .73001 206.71 -184.13)" d="m-413.9 1000.9a27.156 27.156 0 1 1-54.312 0 27.156 27.156 0 1 1 54.312 0z"/> </svg>