<?xml version='1.0' encoding='utf-8'?>
<svg xmlns="http://www.w3.org/2000/svg" data-name="Layer 1" viewBox="0 0 385.66 396.65"> <defs> <style>.cls-1 { fill: #c03; }</style> </defs> <circle cx="192.83" cy="80.3" r="67.06"/> <circle cx="192.83" cy="303.1" r="93.56"/> <path class="cls-1" d="m3.29 283.12c11.65 45.34 68.66 89.85 116.51 70.05 19.47-8.06 30.77-26.6 40.92-44.08 13.62-23.48 23.42-48.75 35.71-72.88 19.88 38.94 36.62 127.19 95.5 121.19 45.57-4.65 80.46-33.63 90.92-78.71 12.77-55.02-19.32-110.79-71.86-166.27-65.23-68.88-175.52-67.87-239.4 2.27-52.31 57.45-81.89 115.54-68.3 168.43z"/> <circle cx="305.18" cy="236.2" r="45.29"/> <circle cx="117.3" cy="173.1" r="45.29"/> <circle cx="217.61" cy="119.7" r="24.78"/> <circle cx="92.52" cy="289.49" r="35.08"/> <path d="M169.71,24.53c-5.33-2.1-10.42-4.6-15.23-7.56-2.28-1.42-5.62-1.83-6.79-4.6-1.52-3.34-1.72-6.48-.77-10.63.14-.56.57-.97,1.1-1.1,4.14-.95,7.29-.75,10.63.77,2.78,1.17,3.19,4.52,4.6,6.79,2.96,4.81,5.46,9.9,7.56,15.23.27.66-.44,1.36-1.1,1.1h0Z"/> <path d="M215.55,22.73c1.99-5.21,4.37-10.19,7.21-14.88,1.36-2.22,1.71-5.5,4.43-6.62,3.3-1.45,6.37-1.58,10.45-.6.55.14.96.58,1.1,1.1.99,4.07.86,7.16-.6,10.45-1.12,2.72-4.4,3.07-6.62,4.43-4.69,2.85-9.67,5.23-14.88,7.22-.66.26-1.35-.45-1.1-1.1h0Z"/> </svg>