<?xml version='1.0' encoding='utf-8'?>
<svg xmlns="http://www.w3.org/2000/svg" enable-background="new 0 0 86.32 92.715" version="1.1" viewBox="0 0 86.32 92.715"> <path d="m70.414 41.048c3.011-1.907 7.031-4.141 10.39-3.23" fill="none" stroke="#000" stroke-miterlimit="22.926" stroke-width=".7744"/> <path d="m75.887 59.909c3.541 0.402 8.074 1.184 10.12 3.998" fill="none" stroke="#000" stroke-miterlimit="22.926" stroke-width=".7744"/> <path d="m72.023 72.328c2.934 2.024 6.563 4.85 7.041 8.297" fill="none" stroke="#000" stroke-miterlimit="22.926" stroke-width=".7747"/> <path d="m15.906 38.65c-3.011-1.907-7.032-4.141-10.391-3.231" fill="none" stroke="#000" stroke-miterlimit="22.926" stroke-width=".7744"/> <path d="m10.433 57.512c-3.542 0.402-8.074 1.184-10.12 3.998" fill="none" stroke="#000" stroke-miterlimit="22.926" stroke-width=".7744"/> <path d="m14.296 69.931c-2.934 2.023-6.563 4.85-7.041 8.296" fill="none" stroke="#000" stroke-miterlimit="22.926" stroke-width=".7747"/> <path d="m41.984 52.809c10.83 0 19.663-8.833 19.663-19.663 0-10.829-8.833-19.662-19.663-19.662s-19.663 8.833-19.663 19.662c1e-3 10.83 8.834 19.663 19.663 19.663z" clip-rule="evenodd" fill-rule="evenodd"/> <path d="m44.82 19.671c0.958 0 1.74-0.782 1.74-1.74 0-0.959-0.782-1.74-1.74-1.74s-1.74 0.781-1.74 1.74c0 0.958 0.781 1.74 1.74 1.74z" clip-rule="evenodd" fill="#fff" fill-rule="evenodd"/> <path d="m39.371 19.968c0.959 0 1.74-0.781 1.74-1.739 0-0.959-0.781-1.74-1.74-1.74-0.958 0-1.74 0.781-1.74 1.74-1e-3 0.958 0.781 1.739 1.74 1.739z" clip-rule="evenodd" fill="#fff" fill-rule="evenodd"/> <linearGradient id="a" x1="42.554" x2="42.554" y1="22.7" y2="92.715" gradientUnits="userSpaceOnUse"> <stop stop-color="#E2001A" offset="0"/> <stop stop-color="#9D0D16" offset="1"/> </linearGradient> <path d="m42.554 92.715c19.281 0 35.007-15.726 35.007-35.007s-15.726-35.008-35.007-35.008-35.007 15.727-35.007 35.008 15.726 35.007 35.007 35.007z" clip-rule="evenodd" fill="url(#a)" fill-rule="evenodd"/> <path d="m51.64 41.839c2.09 0 3.795-1.773 3.795-3.947s-1.705-3.947-3.795-3.947-3.795 1.773-3.795 3.947 1.705 3.947 3.795 3.947z" clip-rule="evenodd" fill-rule="evenodd" stroke="#000" stroke-miterlimit="22.926" stroke-width=".5669"/> <path d="m63.466 65.645c5.27 0 9.568-4.471 9.568-9.951 0-5.481-4.298-9.951-9.568-9.951s-9.568 4.47-9.568 9.951c0 5.48 4.298 9.951 9.568 9.951z" clip-rule="evenodd" fill="#fc0" fill-rule="evenodd"/> <path d="m53.412 79.783c2.09 0 3.795-1.773 3.795-3.948 0-2.174-1.705-3.946-3.795-3.946s-3.795 1.772-3.795 3.946c0 2.175 1.705 3.948 3.795 3.948z" clip-rule="evenodd" fill-rule="evenodd" stroke="#000" stroke-miterlimit="22.926" stroke-width=".5669"/> <path d="m27.539 46.603c3.168 0 5.752-2.688 5.752-5.982s-2.584-5.981-5.752-5.981-5.751 2.687-5.751 5.981 2.583 5.982 5.751 5.982z" clip-rule="evenodd" fill-rule="evenodd" stroke="#000" stroke-miterlimit="22.926" stroke-width=".5669"/> <path d="m20.064 63.806c2.09 0 3.795-1.773 3.795-3.947s-1.705-3.947-3.795-3.947-3.795 1.773-3.795 3.947 1.705 3.947 3.795 3.947z" clip-rule="evenodd" fill-rule="evenodd" stroke="#000" stroke-miterlimit="22.926" stroke-width=".5669"/> <path d="m27.924 78.319c2.09 0 3.795-1.772 3.795-3.947 0-2.174-1.705-3.946-3.795-3.946s-3.795 1.772-3.795 3.946c-1e-3 2.175 1.704 3.947 3.795 3.947z" clip-rule="evenodd" fill-rule="evenodd" stroke="#000" stroke-miterlimit="22.926" stroke-width=".5669"/> <path d="m42.375 22.628c0.071 7.021 0.983 60.278 10.738 68.466-5.531 1.716-13.855 2.721-22.643-0.521 10.177-4.734 11.38-61.054 11.905-67.945z" clip-rule="evenodd" fill-rule="evenodd"/> <path d="m50.37 6.434c0.836-0.128 1.41-0.91 1.282-1.747-0.128-0.836-0.911-1.41-1.747-1.281-1.673 0.257-2.821 1.821-2.564 3.494s1.822 2.82 3.495 2.563c2.51-0.385 4.231-2.731 3.846-5.241s-2.732-4.231-5.242-3.846c-3.346 0.514-5.642 3.643-5.127 6.989 0.514 3.346 1.98 5.541 3.952 9.953" clip-rule="evenodd" fill="none" fill-rule="evenodd" stroke="#000" stroke-miterlimit="22.926" stroke-width=".6446"/> <path d="m34.975 7.819c-0.619-0.095-1.043-0.673-0.948-1.292 0.095-0.618 0.673-1.042 1.292-0.947 1.236 0.189 2.085 1.347 1.896 2.584-0.19 1.236-1.347 2.085-2.583 1.896-1.856-0.285-3.129-2.021-2.844-3.876s2.02-3.128 3.875-2.844c2.474 0.381 4.171 2.694 3.792 5.168-0.38 2.474-1.464 4.098-2.922 7.359" clip-rule="evenodd" fill="none" fill-rule="evenodd" stroke="#000" stroke-miterlimit="22.926" stroke-width=".6367"/> </svg>