<?xml version='1.0' encoding='utf-8'?>
<svg xmlns="http://www.w3.org/2000/svg" viewBox="0 0 640 480"> <path d="m246 162.71a4.2857 4.2857 0 1 1-8.5714 0" fill="#fff" stroke-linecap="round" stroke-width="50"/> <path d="m449.64-196.16c-2.3446 0-19.949 35.344-19.949 40.055 0 2.3575 1.3941 8.3786 3.0578 13.398 1.6637 5.019 3.047 11.253 3.0578 13.81 0.017029 4.0617-4.3388 27.721-5.3148 28.856-0.1994 0.23188-2.8548-0.65324-5.8245-1.9925l-5.3875-2.4734-13.979 8.2447c-7.6896 4.5193-14.136 8.0088-14.343 7.7637-0.20633-0.24504-2.3451-3.6676-4.7323-7.6263-6.7444-11.184-20.027-22.724-33.854-29.269-52.582-24.887-114.86 6.5155-119.84 60.392-2.8126 30.469 15.545 60.284 45.576 73.927 13.547 6.1545 19.004 11.059 19.075 17.039 0.10037 8.4583-1.4937 9.3028-13.906 7.3515-6.1191-0.96188-15.196-2.1896-20.167-2.7482l-9.0278-1.0306 7.863 8.176c8.2371 8.5226 9.4061 10.856 5.606 10.856-1.2459 1.41e-4 -8.736 1.9712-16.745 4.3971-12.386 3.7518-15.104 5.0996-17.619 9.0004-1.6489 2.5571-2.9091 7.1664-2.9122 10.443-0.005005 5.1228-0.80798 6.4784-6.1156 10.512-3.3491 2.5451-6.0429 5.6018-6.0429 6.8019 0 1.2159-1.2092 2.0665-2.6938 1.9237-4.8398-0.46552-6.2339 0.063889-7.1349 2.6108-0.49013 1.3855-3.7209 3.7347-7.1349 5.2217-8.2566 3.596-26.185 17.161-35.456 26.864-9.4544 9.8943-19.343 24.436-22.934 33.734-2.6133 6.7664-12.291 27.901-19.22 41.842-1.7045 3.4291-3.9488 6.4211-4.9508 6.6644-3.9769 0.96573-31.225 17.758-30.214 18.619 0.59434 0.50601 7.8617 3.2749 16.163 6.1835 8.3009 2.9086 16.373 5.9554 17.91 6.7332 3.783 1.9145 3.6804 10.632-0.21838 18.756-3.8986 8.1247-4.0144 15.92-0.21847 19.169 1.598 1.3676 3.8013 4.3727 4.8051 6.6644 1.0039 2.2917 3.0068 4.4946 4.5139 4.9468 1.5072 0.45252 3.1628 1.778 3.6403 2.9543 1.3242 3.2632 7.3412 5.015 10.047 2.8856 1.2559-0.98813 3.795-2.1773 5.6789-2.6108 2.9315-0.67441 3.4946-0.2005 3.4946 3.2292 0 3.5649 3.6187 8.5444 5.1692 7.0767 1.7255-1.6331 6.9893-16.36 6.9893-19.581 0-6.1022-3.214-14.223-7.2806-18.619-2.0925-2.262-4.73-6.2785-5.8972-8.863-1.9331-4.2804-1.8309-5.0115 1.0192-8.657 2.884-3.689 9.0534-26.961 9.1007-34.353 0.011047-1.7207 2.4118-6.2071 5.3875-9.8936 5.4105-6.7026 8.3041-11.946 10.848-20.062 0.74454-2.3752 2.0223-4.4138 2.8393-4.4659 3.9881-0.25389 11.541-6.2017 13.76-10.856 1.5661-3.2842 5.711-7.4134 11.285-11.13 4.8697-3.2474 13.565-10.911 19.293-17.039 14.035-15.014 20.153-20.612 22.497-20.612 1.2539 1.37e-4 2.2979 2.8027 2.8394 7.7638 0.46584 4.2696 3.1061 12.519 5.8971 18.344l5.0964 10.649v47.475l-5.3875 9.3439c-9.6645 17.025-28.488 55.29-35.092 71.316-3.5757 8.6781-7.4846 17.271-8.7367 19.1-2.0321 2.9683-2.0022 3.5343 0.1456 5.5652 2.193 2.0737 2.067 2.6285-0.87361 6.3896-2.3514 3.0074-2.7527 4.6143-1.529 5.7712 1.0793 1.0207 1.2 2.9157 0.36408 5.359-0.71532 2.0907-2.0625 8.6964-2.985 14.634-0.92273 5.9382-2.5922 13.391-3.713 16.558-1.1208 3.1671-3.1693 12.573-4.5867 20.886-1.8632 10.927-3.7974 16.888-6.8437 21.642-2.3175 3.6175-4.5683 8.4661-5.0964 10.787-1.4679 6.4503-32.049 63.855-33.782 63.415-0.83728-0.21246-1.9629-6.7801-2.4754-14.634-0.51248-7.8538-1.4654-16.535-2.1113-19.306-1.0707-4.5931-29.928-72.524-39.388-92.684-2.1825-4.651-4.0043-9.071-4.0043-9.7562 0-0.68491 3.7587-3.5614 8.3726-6.4583l8.4454-5.2903-8.0814-8.0386c-13.821-13.787-27.673-33.346-51.109-72.278l-10.921-18.138v-11.474c0-18.289 6.7874-33.056 26.574-58.056 17.244-21.787 27.354-47.702 23.662-60.667-0.9089-3.1922-3.5928-8.8107-5.97-12.504-6.1054-9.4862-9.2463-19.146-9.2463-28.788 0-17.175 11.561-30.241 41.572-47.132 45.3-25.497 70.511-44.33 73.242-54.621 1.2919-4.8674-4.4194-14.58-12.158-20.612-3.0055-2.3426-16.537-9.8992-30.068-16.833-41.578-21.305-60.101-32.896-79.285-49.743-14.748-12.951-15.922-13.485-25.7-10.856-4.3799 1.1779-10.264 2.7023-13.178 3.3666-7.9758 1.8187-10.249 6.6137-7.8629 16.696 1.042 4.4032 3.3184 9.6989 5.0235 11.749 5.7578 6.9218 18.443 11.114 39.242 13.054 9.786 0.91275 9.8105 0.93086 40.334 22.604 39.946 28.364 40.407 28.771 40.407 31.398 9.2e-5 4.9452-7.9266 9.8719-56.424 34.902-30.532 15.758-47.998 24.047-50.672 24.047-2.3585 0-4.0043-6.101-4.0043-14.634 0-5.3949 0.11206-5.5747 4.8052-5.2216 3.8356 0.2885 5.2971-0.31859 6.9165-3.1605 2.4063-4.2228 1.4467-15.09-2.0386-22.948-1.447-3.262-1.9322-7.0105-1.3105-10.168 1.9572-9.944 0.98781-27.94-2.0386-37.101-7.5392-22.822-20.288-32.805-44.702-34.971-19.447-1.725-25.79 0.30301-37.131 11.886-12.695 12.966-18.035 24.691-22.642 49.674-2.0795 11.275-4.5212 23.222-5.4604 26.52-1.9876 6.9802-12.99 30.024-14.343 30.024-0.50566 0-10.351-6.2964-21.842-14.016-11.49-7.7194-26.83-17.909-34.146-22.604-7.3155-4.6953-13.323-9.0726-13.323-9.6875 0-1.9044 22.382-24.757 32.471-33.185 33.05-27.609 59.677-40.347 83.143-39.712 17.024 0.46053 21.965-2.314 27.448-15.39 4.7966-11.441 4.1262-13.672-4.0771-13.672-2.8738 0-10.042-1.9533-15.944-4.3284-18.126-7.2938-23.414-5.9658-35.966 9.1379-7.1736 8.6318-8.2764 9.2998-45.139 27.276-36.273 17.689-59.424 30.44-63.34 34.902-3.1678 3.6093-5.0756 2.3493-11.358-7.4889-8.5613-13.408-10.372-15.015-16.017-13.947-3.7202 0.70358-5.5468 0.12694-8.8094-2.8169-5.9968-5.411-25.915-13.889-35.019-14.909-6.9589-0.7794-8.606-0.42903-13.979 3.0917-5.571 3.6508-6.797 3.916-15.144 3.023-10.989-1.1756-13.772-0.02066-22.57 9.344-5.4795 5.8329-7.8223 7.1537-14.779 8.5195-14.447 2.8361-19.736 10.118-13.542 18.482 3.6946 4.9879 1.605 9.1973-6.4797 13.329-9.4217 4.815-10.482 8.0078-5.7516 16.421 4.3869 7.8018 4.6174 11.773 1.1649 18.619-2.1879 4.3385-2.2419 5.8932-0.58246 11.13 1.0595 3.3443 4.069 7.9835 6.6981 10.306 4.5202 3.993 5.2536 4.1627 14.27 3.3666 5.2439-0.46311 9.5374-0.5188 9.5374-0.068718s-1.6804 2.0608-3.713 3.5727c-10.385 7.7247-7.6695 28.65 3.713 28.65 4.5842 0 9.2549-4.4323 9.0278-8.5882-0.10535-1.928-0.28296-1.8933-1.0193 0-0.46173 1.1876-1.8542 3.2865-3.1306 4.672-8.0669 8.7566-17.758-7.4428-11.43-19.1 3.5352-6.5128 6.8213-6.4422 8.8094 0.20611 1.7388 5.8144 6.2394 11.336 9.3191 11.336 5.6862 0 6.7046 16.699 1.6745 27.757l-2.4754 5.4277-8.8094-4.191c-17.512-8.2847-30.772-8.9553-37.567-1.855-3.7508 3.9192-5.1412 20.668-6.334 76.126l-1.0921 49.331h-19.512c-21.815 0-40.11-2.0237-48.925-5.3591-3.239-1.2255-6.2152-1.9679-6.6252-1.5802-0.40994 0.38765 1.703 7.0483 4.6596 14.772 2.9566 7.7233 5.3148 15.012 5.3148 16.146 0 1.6703-8.2487 6.2522-11.285 6.2522-0.42401 0-1.7672-1.8268-2.985-4.0536-3.6455-6.6662-16.448-19.294-21.696-21.367-4.9436-1.9533-18.784-1.3073-18.784 0.89316 0 0.59218 3.74 2.5504 8.3725 4.3284 15.444 5.9276 21.564 14.769 14.416 20.886-2.9866 2.5558-3.2262 2.5572-7.5718-0.48093-5.3051-3.7089-6.625-3.8656-9.1734-0.96188-3.8157 4.3477 5.3217 10.401 24.899 16.489 9.9673 3.0995 14.109 3.2586 23.443 0.687 3.0725-0.84644 3.4302-0.43111 3.4218 3.9163-0.010315 5.3534-3.5358 12.777-6.9165 14.566-4.2834 2.2667-2.1093 3.6521 3.4947 2.1986 27.037-7.013 94.7-38.624 100.11-46.788 1.6839-2.5427 3.4248-4.6415 3.9315-4.672 1.9524-0.11742 21.404 17.78 23.516 21.642 3.5033 6.4064 2.7668 8.8284-6.3341 21.642-14.895 20.972-19.812 24.748-48.779 36.689-44.367 18.289-67.663 30.062-84.964 43.01-5.8609 4.3864-15.241 11.259-20.822 15.253-7.1244 5.0981-10.854 8.9041-12.522 12.848-2.9458 6.962-11.097 44.252-18.42 84.233-6.5391 35.701-12.735 63.903-14.707 66.919-1.6107 2.4636-1.2061-2.3615 3.4218-42.117l3.1306-26.932-3.3491-12.642c-8.1145-31.141-17.26-52.564-40.625-95.157-26.92-49.074-35.461-67.802-35.456-77.843 0.001038-2.0336 1.711-5.6196 3.7859-7.9011 5.5602-6.1138 6.1611-11.788 2.257-21.78-1.8378-4.7031-4.8686-13.437-6.7709-19.375-8.2322-25.697-13.632-101.14-7.7901-108.69 1.9974-2.583 2.179-2.5322 7.0621 0.75576 3.1893 2.1474 4.397 2.8157 4.4412 2.1298 1.36 1.5746 3.6914 3.2299 2.9849 2.817-3.0687-1.7935 3.1668 7.854 13.178 20.406 5.4797 6.8703 11.273 14.942 12.886 17.932 1.6131 2.9902 4.5347 6.4551 6.4069 7.695 4.067 2.6937 4.9201 2.7694 9.2462 0.61833 6.8292-3.3958 19.379-14.114 49.143-41.91l21.478-20.062 6.8436 4.5345c12.265 8.1752 25.584 6.7063 33.782-3.7788l2.8394-3.6414-7.3533-7.0766c-4.0259-3.8651-6.9934-7.1827-6.6252-7.4202 0.3681-0.23768 6.5301-3.1986 13.76-6.5957 7.2302-3.3972 16.84-9.3573 21.332-13.192 7.4517-6.3608 8.0293-7.1875 6.2613-9.9623-1.3818-2.1686-1.4744-3.8781-0.3641-5.84 2.6986-4.7681 1.8247-8.6324-2.257-10.1-3.0497-1.0965-3.7858-2.389-3.7858-6.3896 0-6.2736-4.665-9.931-10.12-7.9698-3.3803 1.2154-3.6403 1.0032-3.6403-3.6414 0-4.1292-0.57257-5.1461-3.7858-5.9087-1.0392-0.2465-2.1655-0.35453-3.2763-0.34352-10.737 0.106-24.244 11.756-28.685 25.627-1.5952 4.982-4.8904 11.035-7.7174 14.085l-5.0235 5.4277-5.606-5.2216-5.5331-5.1529-8.1541 4.191-8.227 4.1223 2.985 7.5576c1.6514 4.1088 3.0574 8.5787 3.0578 9.9623 7.93e-4 2.8694-20.927 18.966-31.743 24.459-16.568 8.4144-21.47 6.2772-31.67-14.085-3.6371-7.2608-6.6252-13.902-6.6252-14.703 0-0.8011-1.5684-4.4785-2.9849-5.5651-0.55182-0.42313-2.0546-1.1224-3.7131-1.8551 0.44104-0.64586 0.90619-1.2961 1.3832-1.9238 0.45062-0.31306 1.8 0.33883 2.9122 1.0306-0.3075 0.6343-0.52771 1.2099-0.50964 1.5115 0.047485 0.79186 0.43964 0.54188 0.8736-0.48094 0.10236-0.241 0.25317-0.38821 0.36414-0.54963 0.23828 0.17296 0.46136 0.35936 0.5824 0.48094 0.04657-0.20653 0.27588-0.57352 0.5097-0.96187 0.39606 0.095787 0.82721 0.39975 1.456 0.89315 2.4106 1.8918 12.122 0.60964 13.687-1.7863 1.3484-2.0632-1.9368-4.8773-9.0278-7.6263-2.215-0.85868-3.5865-1.2302-4.2228-1.2367-1.8604-1.5997-6.1126-4.387-9.9743-8.0386-3.4127-3.2271-8.1772-9.3747-10.557-13.672-3.2601-5.8882-5.311-8.0641-8.4454-8.6569-4.109-0.7771-16.378-11.88-15.944-14.428 0.12299-0.72354 3.9859-1.1342 8.5909-0.96187l8.3726 0.2748 5.0236-7.9699c4.9888-7.9246 6.8478-9.3056 8.6638-6.527 2.5572 3.9127 4.9774 0.69819 7.3533-9.7562 1.3986-6.1541 2.5482-12.822 2.5482-14.772 0-1.9498 1.7725-6.889 3.9315-10.924 3.2161-6.0107 5.6387-8.2062 13.542-12.504 10.284-5.5933 14.006-9.6275 18.056-19.444 3.6954-8.9588 3.2045-18.502-1.3106-27.07-8.8893-16.869-19.429-24.038-44.848-30.23-13.427-3.2708-17.752-3.7465-28.831-3.023-16.34 1.0668-33.001 5.4557-45.794 12.024-13.132 6.7417-18.979 12.265-24.827 23.497-4.3173 8.2924-4.8931 10.677-4.8778 21.574 0.020447 14.657 4.2968 24.572 12.886 29.956 3.703 2.3208 6.7588 6.3759 10.266 13.535 2.749 5.612 5.0236 11.098 5.0236 12.161 0 2.6804-5.7315 5.8013-12.377 6.7332-4.8178 0.67562-6.4547 0.023216-12.086-4.5346l-6.5525-5.2216-14.561 0.4122c-13.559 0.38554-15.18 0.10266-24.171-3.9849-5.3082-2.4133-9.8779-4.3972-10.12-4.3972-0.24176 0-1.3454 1.984-2.4025 4.3972-1.7769 4.0563-1.5639 4.742 2.4025 8.6569 2.3597 2.329 3.9979 4.3887 3.6403 4.672-0.3576 0.28339-4.1332 2.3859-8.3726 4.6032-6.8545 3.5853-8.2047 5.13-12.45 14.222-2.6254 5.623-6.9293 15.806-9.5375 22.535-2.6082 6.7299-5.4501 13.823-6.3341 15.802-2.2037 4.9351-8.8822 23.303-8.8822 24.459 0 0.51636 8.6844-3.2382 19.221-8.3134 10.536-5.0752 19.436-8.8664 19.876-8.4508 0.64728 0.61217-14.764 68.764-26.501 117.21-2.4902 10.279-4.4191 12.375-7.863 8.4508-1.2867-1.4662-1.3247-3.9616-0.072754-9.4813 0.92798-4.0915 1.3527-8.2055 0.94647-9.2066-0.40613-1.0011-3.8553-3.423-7.7174-5.3591l-6.9893-3.504-5.7515 6.2522c-3.8554 4.2318-6.6467 6.112-8.6638 5.7713-2.6838-0.45331-3.368 1.2319-6.4069 16.764-1.8588 9.501-3.7892 21.609-4.3684 26.933-1.049 9.6421-1.0788 9.6898 4.1499 14.634 5.0724 4.7966 14.036 7.843 18.42 6.2522 1.0794-0.39156 2.8338-4.0572 3.9315-8.1072 1.0978-4.05 2.6341-7.3515 3.4219-7.3515 0.78778 0 4.8693 1.6486 9.0278 3.6414 8.5794 4.1112 8.5659 4.1434 5.8244 21.574-0.94385 6.0015-1.3805 11.27-0.94647 11.68 0.43396 0.41036 7.5151 1.6505 15.726 2.8169 8.2108 1.1664 15.166 2.3571 15.435 2.6108 0.26831 0.25389-0.56787 2.321-1.8201 4.6033-10.057 18.331-4.5244 62.67 15.143 121.54 2.7773 8.3134 5.3812 18.371 5.8244 22.329 0.44305 3.9589 3.0109 15.609 5.6788 25.902 6.2262 24.02 6.5402 35.872 1.1649 46.788-4.3299 8.7941-9.4806 14.168-22.206 23.085-9.925 6.955-22.539 20.176-43.61 45.689l-14.634 17.657 4.7323 15.459c8.6791 28.366 10.251 32.583 28.54 76.195l11.649 27.688 10.702-0.8245c16.783-1.2412 17.546-1.4699 17.546-6.2519 0-9.6912 18.187-67.175 34.655-109.45 21.12-54.214 29.48-75.441 34.946-88.562l6.0428-14.359-5.606-70.561c-4.9778-62.725-5.5998-75.741-3.5676-70.561 0.31061 0.79172 4.6078 8.2447 9.6104 16.558 5.0026 8.3134 13.206 22.67 18.201 31.879 8.7147 16.068 49.764 88.68 54.458 96.325 2.471 4.0239 2.4362 4.1441-41.208 72.622-22.801 35.776-34.41 62.947-49.071 114.94-3.766 13.356-6.6555 24.425-6.4069 24.596 1.859 1.2802 123.26 7.6813 138.18 7.2831 14.915-0.39832 14.624-0.25763 11.649-3.3669-2.4825-2.5938-2.1804-2.7471 8.1541-3.71l10.702-1.0306v-5.0156c0-20.792 14.406-31.515 22.351-16.627 1.833 3.4346 3.8022 9.7312 4.3683 14.016l1.0193 7.8325h12.741c12.703 0 12.814-0.016907 12.814-3.7101 0-3.6368-2.5392-33.61-3.713-44.109l-0.5824-5.29 18.128 0.8245 18.128 0.8929v-3.2978c0-1.8143-1.404-10.8-3.0578-19.993-1.6539-9.1929-6.0402-36.017-9.8287-59.568l-6.9165-42.804v-83.477l11.503-6.8705c22.532-13.45 83.833-51.611 96.248-59.911 6.9391-4.6392 12.936-8.1301 13.323-7.7637 0.38733 0.36633-4.5082 9.6778-10.921 20.68-31.419 53.91-42.226 74.832-47.542 91.997-3.2296 10.428-3.1166 7.8768-8.8094 158.57l-0.8737 24.665 11.43 1.0306c6.2942 0.55774 14.571 0.7702 18.42 0.48096 3.8488-0.28955 6.9893-0.16589 6.9893 0.27478 0 0.44128-5.067 2.2552-11.285 3.9849-6.2177 1.73-13.226 4.6808-15.58 6.5958-3.9219 3.1902-4.2918 4.4254-4.8051 15.115-0.3082 6.4174-0.17892 13.135 0.29123 14.91l0.8009 3.2288 62.612-0.8244v-7.4889c0.081482-18.286 14.061-29.614 21.55-17.451 1.5049 2.4435 3.1649 7.5836 3.6402 11.474 1.7728 14.507 0.77499 13.604 14.415 13.604h12.086v-4.1224c0-2.2619-0.7431-12.768-1.6745-23.291-1.5185-17.156-1.473-19.241 0.72806-20.406 2.2104-1.1699 2.2748-1.6675 0.21841-5.4277-2.8993-5.3014-2.9429-10.733-0.072784-12.985 1.2284-0.96399 5.455-2.4855 9.3918-3.4352 3.9369-0.94952 7.9076-2.8108 8.7366-4.0536 2.2676-3.3994-1.7166-13.22-18.201-45.414-26.703-52.152-33.095-69.544-32.835-89.111 0.39886-30.038 12.995-60.036 38.441-91.447 37.166-45.877 41.914-53.092 46.304-70.698 7.8068-31.307-4.6818-57.01-37.567-77.088-4.7654-2.9095-9.3655-6.6858-10.193-8.3821-2.1569-4.423 2.0394-22.218 7.7174-32.841 3.7638-7.0424 4.4406-9.7516 3.713-14.772-0.64529-4.4522-0.38534-6.1148 1.0193-6.1148 2.8149 0 12.266 9.7735 29.195 30.23 8.1898 9.8968 17.77 20.896 21.332 24.459 3.5617 3.5629 15.912 19.411 27.448 35.246s22.352 30.557 24.026 32.704c2.9648 3.8037 3.0489 4.2694 0.65524 18.001-3.597 20.635-4.0503 24.933-4.4411 47.682-0.39446 22.969-0.7477 22.067 10.921 25.49l5.3148 1.5802 0.9465 30.849c0.5068 16.953 1.6873 36.349 2.621 43.078 0.9335 6.7299 1.8772 20.334 2.1113 30.23l0.4368 18.001-5.0963-0.481c-4.8492-0.44797-5.069-0.30087-4.2955 3.5726 0.44692 2.2384 2.0235 27.929 3.4946 57.026l-0.4368 121.27 13.178 4.3288c8.0566-3.05e-4 19.018-69.994 17.91-71.042 0.32745 0.16309 2.1901 1.3824 2.4754 1.0992 0.3458-0.34277 2.0658-12.269 3.8586-26.52s3.578-28.146 3.9315-30.918c3.1457-24.666 4.2864-46.737 6.7709-130.06 0.70374-23.603 1.642-43.253 2.1114-43.697 0.46939-0.44388 11.675 0.32687 24.899 1.7176 17.298 1.8194 29.266 2.249 42.591 1.5802l18.492-0.8932 11.503 15.459c6.3193 8.5203 16.881 22.189 23.516 30.368 12.744 15.71 19.931 28.528 23.807 42.666 3.234 11.797 3.059 13.741-1.1649 13.741-3.4241 0-3.4463 0.19278-2.3298 9.6876 0.62856 5.3443 1.1843 18.511 1.2377 29.2 0.087257 17.456-0.64076 22.853-6.9893 53.659-6.8984 33.474-7.2098 34.483-12.959 41.361-3.2399 3.876-5.8972 7.6935-5.8972 8.451 0 0.75738 1.6771 2.6076 3.713 4.1224 3.1619 2.3514 3.8866 4.4994 4.9508 14.84 1.2019 11.679 1.3503 12.147 5.242 12.573 3.9571 0.4328 4.0668 0.61853 3.2762 8.8632-0.7204 7.5121-0.48547 8.5695 2.4026 10.031 1.7772 0.89954 6.778 1.7506 11.139 1.9237 7.8738 0.31262 7.956 0.29169 11.576-5.8399l3.6403-6.1836 4.0042 3.7788c6.39 6.0425 27.116 14.734 40.625 17.039 15.268 2.6052 23.866 2.7578 28.831 0.61829 6.6704-2.8737 4.9902-7.7882-5.1692-14.84-5.5557-3.8563-7.2806-5.8942-7.2806-8.863 0-2.2964-1.4528-4.9634-3.4946-6.5269-4.469-3.4222-3.3184-4.3792 3.2034-2.6108 9.4646 2.5668 9.0278 3.7634 9.0278-25.215v-26.658l7.6445-27.688c4.1772-15.231 9.9494-36.084 12.886-46.376 2.9371-10.293 5.3122-21.647 5.3148-25.215 0.002533-3.5682 0.78865-8.7766 1.6746-11.542 0.88599-2.766 2.1985-8.5619 2.9122-12.917 0.93788-5.723 3.7042-11.688 10.047-21.574 4.8262-7.5217 11.674-19.532 15.216-26.658 5.8982-11.865 8.1787-18.011 12.741-34.696 0.88486-3.2362 5.2095-11.607 9.6831-18.619 6.2628-9.8171 10.087-14.038 16.527-18.344l8.3726-5.5651 15.216 14.84c54.07 52.701 66.309 64.219 75.353 71.11l10.047 7.695-2.7666 10.1c-4.1673 15.01-6.5344 43.519-5.606 67.538 0.92062 23.818-0.93683 37.638-10.411 76.263-2.9787 12.144-5.0528 22.438-4.5867 22.879 0.466 0.44074 6.3328 0.2652 13.105-0.48065 6.772-0.74579 12.611-1.0518 12.886-0.61859 0.2753 0.43341 0.92203 7.1124 1.529 14.84 0.99994 12.734 1.4293 14.144 4.3683 14.772 9.8069 2.0936 16.899 3.4066 17.109 3.1608 0.13135-0.15362 2.0874-3.6761 4.2955-7.8328 6.011-11.316 9.9626-10.384 17.619 4.3286 4.924 9.4623 8.7804 11.86 23.589 14.703 36.484 7.0039 51.773-11.142 18.929-22.466-8.9138-3.0737-14.638-7.9647-19.439-16.627-2.4395-4.4017-2.6127-4.3373 5.5333-5.3588 4.039-0.5069 8.5124-1.6989 9.9014-2.6798 2.2826-1.6117 2.2882-2.4036 0.29123-7.8325-1.2152-3.3038-2.9463-10.397-3.8587-15.802-0.91232-5.4053-5.6548-27.626-10.557-49.399-11.701-51.972-13.103-58.95-16.818-82.79-4.0805-26.187-6.3966-33.702-14.488-46.308-3.6743-5.7241-9.8548-17.014-13.687-25.078-3.8322-8.0635-10.204-20.61-14.124-27.826-3.9198-7.2154-7.3164-13.512-7.5717-14.016-0.25546-0.50375 1.4453-1.5754 3.7858-2.4047 2.3405-0.82932 9.7557-3.5292 16.454-5.9774l12.158-4.4659 5.7516 6.1835c3.1562 3.3856 8.6166 11.683 12.158 18.413 3.5422 6.7299 6.6793 12.492 6.9165 12.848 0.23715 0.35642 2.7199-1.5969 5.606-4.3285 3.2961-3.1194 8.1311-10.972 12.886-21.23 7.2076-15.548 9.9194-19.854 19.075-29.75l4.0043-4.3285-0.7281 5.0155c-1.9742 13.1-4.2457 41.778-3.7858 48.163 0.45102 6.2573 1.1401 7.487 5.3875 9.8249 2.6602 1.4646 9.4639 3.4187 15.071 4.3972l10.12 1.7863 15.799 38.063c8.6876 20.947 15.799 39.408 15.799 41.017 0 7.5256-10.52 42.082-27.229 89.317-10.069 28.465-19.1 55.076-20.021 59.155-1.608 7.1253-1.4587 7.8099 3.8586 17.795 6.8983 12.953 17.513 23.835 27.448 28.238 11.021 4.8835 25.46 4.7219 36.548-0.41254 10.734-4.9703 31.156-20.469 37.203-28.238 7.1383-9.1703 7.3954-11.938 1.6745-17.52-5.9288-5.7848-10.747-19.352-16.964-47.888-7.2299-33.186-5.8636-53.081 5.3876-81.347 6.2755-15.765 6.2271-20.557 0.29126-47.888-6.3832-29.39-11.2-60.676-9.6104-62.178 1.318-1.2461 30.17-4.7359 31.816-3.8475 0.59692 0.32233 4.8913 6.9433 9.6103 14.634 4.7189 7.691 14.256 23.062 21.186 34.147 21.622 34.583 21.158 33.288 20.167 51.735-0.65747 12.241-2.4555 21.835-7.8629 41.842-13.494 49.926-17.815 79.09-19.876 133.5l-0.728 19.787h3.9315c3.5344-3.66e-4 3.8726-0.43536 2.985-3.7792-0.55011-2.0715-1.2881-5.8322-1.6746-8.313-0.57159-3.672 0.010803-3.0652 3.1306 3.1601 3.5839 7.1516 4.122 7.6352 8.7366 7.2142 4.8164-0.43909 4.9363-0.66864 5.3876-8.1073 0.40485-6.6716 1.0175-7.7694 4.4411-9.0004 2.1517-0.77319 6.1315-1.0375 8.8823-0.54956 4.0495 0.7182 5.093 0.43195 5.6787-1.7177 0.50452-1.851 0.82361-1.5084 0.94653 1.168 0.10626 2.3082 1.6292 4.8713 3.9315 6.4586 2.1059 1.4517 6.1816 6.8768 8.955 12.023 4.738 8.7915 5.3595 9.3959 10.775 9.8249 4.3196 0.3421 6.6697-0.39856 9.3917-2.817 3.6119-3.2086 5.308-1.9928 1.8201 1.3057-1.4208 1.3434 1.4743 1.786 12.959 1.786 12.737 0 15.138-0.40234 17.764-2.8853 5.8846-5.5649 1.687-17.934-6.4797-19.032-2.1711-0.29169-3.5476-1.57-3.8586-3.6414-0.45361-3.0211 0.069885-3.2291 7.8629-3.2291 12.983 0 13.282-0.37299 9.7558-9.1378-4.1942-10.424-12.851-40.769-16.308-57.094-3.6133-17.063-5.4695-33.685-8.4454-74.889-2.7747-38.421-6.2436-70.149-8.5182-78.324-3.286-11.812-29.555-64.037-49.289-97.974-2.762-4.7503-5.5349-11.912-6.1156-15.871-1.8821-12.831-12.502-49.916-20.313-70.767-12.486-33.332-20.209-66.729-22.497-97.493l-0.8736-11.68 9.0278 12.985c15.82 22.761 32.394 40.589 56.06 60.324 24.515 20.443 37.802 36.051 56.278 65.957 5.7476 9.3032 11.238 16.902 12.158 16.902 0.92004 2.75e-4 2.7291-2.0572 4.0043-4.6033 2.1553-4.3034 2.3705-1.6612 3.2034 37.101l0.9464 41.636 6.771 25.971c9.7334 37.164 10.832 46.948 9.319 81.691-0.69739 16.02-1.0788 57.281-0.87372 91.722l0.3641 62.659 13.105 5.359c7.2322 2.9692 14.05 5.428 15.143 5.428 2.8377 0 2.4965 2.0416-1.6744 9.8246-5.4149 10.105-8.93 22.856-7.9357 28.65 1.7666 10.294 12.109 16.215 28.394 16.215 12.389-3.05e-4 19.934-2.4898 23.589-7.764 2.226-3.2125 2.4199-5.6373 1.2376-18.482-0.74799-8.1279-1.108-20.152-0.80084-26.726 0.52765-11.296 0.74799-12.07 4.4412-13.398l3.9315-1.3741-1.0193-14.703c-2.1228-31.037-8.5478-91.512-10.775-101.48-1.2815-5.7352-3.3362-17.776-4.5868-26.795-2.0646-14.894-2.0894-17.019 0.14569-23.222 1.8997-5.2719 2.3216-10.126 1.6746-21.23-0.60901-10.448-0.25098-15.945 1.3104-20.131 2.9196-7.8246 2.726-12.424-0.87366-19.1-3.3361-6.1878-4.078-22.269-1.6018-35.933 0.71753-3.9586 2.1886-18.468 3.2763-32.223l2.0385-25.009 4.2955 4.8094c6.7708 7.5643 17.215 29.186 22.497 46.582 5.5084 18.144 8.975 27.46 14.124 36.757v-504.71c-1.2823-0.45517-2.5545-0.024841-4.3684 0.89317-2.1597 1.0931-9.5152 7.2092-16.381 13.604-17.365 16.174-24.142 29.711-19.221 38.406 1.541 2.722 18.403 11.334 22.206 11.336 1.9134 0.001343 1.7155 13.502-0.2912 24.116l-1.0921 6.1148h4.8051c2.8467 0 4.4835 0.59822 3.9315 1.4428-0.51733 0.79187-3.1528 1.4399-5.8244 1.4428-13.444 0.014881-19.755 10.161-27.739 44.59-5.4762 23.616-12.312 40.809-23.589 59.018-2.2063 3.5628-9.3947 15.573-15.944 26.658-6.5496 11.084-16.673 27.54-22.497 36.62-15.531 24.214-16.158 28.614-3.713 27.001l6.8436-0.9619-0.728 6.8019c-0.37836 3.7318-0.87878 7.56-1.1649 8.4508-0.77814 2.4223-21.607 3.742-31.233 1.9925-4.6049-0.83682-12.101-3.3311-16.672-5.4964-9.136-4.3276-26.52-19.593-36.257-31.948-8.897-11.289-24.33-35.616-33.782-53.247-10.846-20.231-20.692-34.199-26.064-36.826-2.8322-1.3851-11.218-2.5059-23.443-3.0918-10.475-0.50199-19.075-1.4433-19.075-2.1298 0-0.68651 3.4998-5.4865 7.7902-10.649 4.2906-5.1627 7.4682-9.7157 7.0621-10.1-0.40619-0.38406-10.549 3.48-22.57 8.5882s-22.308 9.0485-22.861 8.7256c-0.55225-0.32275-0.85767-4.1376-0.72797-8.4508 0.2019-6.7291 0.80084-8.2852 4.441-10.993 4.1713-3.1026 4.3499-3.0487 9.3919-0.48094 4.1818 2.1295 5.8279 2.2406 8.955 0.89318 9.1456-3.9404 12.099-21.199 5.7516-33.597l-3.2762-6.3896 4.441-10.031c2.4376-5.5075 5.8802-16.131 7.7174-23.566 3.2802-13.273 3.3383-13.704 0.72809-24.459-3.3525-13.816-8.1496-22.34-18.856-33.528-10.774-11.258-22.179-18.188-31.67-19.306-3.9963-0.47101-11.74-2.0679-17.182-3.504-5.4421-1.4361-15.58-3.0292-22.497-3.504-11.037-0.75764-13.978-0.36984-24.317 2.9544-8.5791 2.7584-13.574 5.4127-18.347 9.7562-6.8453 6.2293-18.199 21.93-25.555 35.452-3.2637 6-4.4661 7.2251-4.9508 5.0842-1.3747-6.0763 1.0768-26.428 4.2228-35.315 3.0771-8.691 3.2756-13.027 0.87363-18.894-0.64905-1.5859 0.058594-2.5661 2.1842-3.0917 1.7177-0.4247 3.5879-1.913 4.1498-3.2979 1.6331-4.0234-2.278-15.431-6.4796-18.963-4.171-3.5061-11.089-4.3125-13.979-1.5802-3.7056 3.5044-3.5461-0.3705 0.43683-11.68 3.9005-11.075 4.1235-15.871 0.87372-15.871zm-973.99 226.18c-0.033691 0.15016-0.036682 0.27295 0.072815 0.27483 0.13696 0.002275 0.083557-0.1177-0.072815-0.27483zm917.93-113.43c0.04068-0.038513 0.17755-0.020271 0.36408 0 2.7993 0.30421 20.939 6.8012 22.57 8.176 0.70596 0.59514 0.25382 2.5998-1.0193 4.4659-2.9505 4.3248-6.0865 12.2-10.047 25.146-1.7422 5.695-5.8676 14.054-9.2462 18.757-3.3444 4.6549-7.5052 12.511-9.2463 17.451-1.741 4.9398-3.7646 9.3183-4.5139 9.7562-0.74939 0.43799-2.0927 3.3935-2.985 6.527-0.8923 3.1336-2.2328 5.7026-2.985 5.7026-0.75226 0-3.633 2.2218-6.4069 4.9468-3.2095 3.153-7.1422 5.2954-10.775 5.9087-6.5306 1.1025-7.5703-0.19982-1.8202-2.2673 4.258-1.5309 8.8195-9.9906 7.3533-13.604-0.58688-1.446 2.2862-5.597 8.1542-11.886 4.9885-5.3467 10.846-12.431 13.032-15.734 9.6547-14.588 13.443-36.98 9.1734-54.346-1.1475-4.667-1.8867-8.7308-1.6017-9.0004zm60.938 31.192c0.54514 0 1.4032 3.2716 1.9657 7.2828 0.5625 4.0111 1.9066 8.118 2.985 9.1379 1.0784 1.0198 3.0276 4.2069 4.2954 7.0766 3.171 7.1762 14.632 18.442 25.482 25.009 7.3551 4.4516 8.8504 6.0419 8.0814 8.3821-1.682 5.1203-2.5573 19.138-1.529 24.322 1.2809 6.4573 7.733 13.81 12.158 13.81 7.5239 0 13.105-9.9133 13.105-23.291v-8.5882l6.334 5.0842c3.5086 2.8399 10.081 6.2908 14.561 7.6263l8.1541 2.4047-0.5096 9.4814-0.364 9.4127-30.505 1.5802c-16.746 0.88508-30.759 1.6818-31.16 1.7863-0.40158 0.10466 4.9817 3.5716 11.94 7.695l12.668 7.5576-5.242 1.7177c-15.023 4.9183-27.088 13.797-32.544 23.978-3.0351 5.664-4.2088 10.749-5.2419 22.535-1.372 15.652-7.3448 81.251-11.358 124.63-3.1007 33.52-3.0032 33.161-10.193 40.536-8.349 8.5651-16.468 12.869-30.869 16.352-6.5581 1.5861-12.228 3.1564-12.595 3.504-0.36768 0.34784 1.9467 1.6414 5.0964 2.8857 3.1497 1.2444 5.3877 2.4726 5.0236 2.8169-0.36401 0.34433-6.4836 1.8357-13.615 3.2978l-12.959 2.6796-13.76-13.741c-19.521-19.474-18.894-17.993-11.794-28.994 34.807-53.932 53.028-107.1 50.308-146.69-0.51663-7.5215-2.8992-24.963-5.3148-38.819-4.2125-24.161-4.2878-25.336-1.7473-28.788 1.4569-1.9795 4.0381-6.2457 5.7515-9.4127 1.7138-3.1669 5.4598-8.2212 8.3726-11.199 3.9238-4.0112 5.9884-8.0128 7.9358-15.528 1.4459-5.5787 4.8336-14.488 7.5718-19.787 2.7381-5.299 5.5075-12.514 6.1156-16.077 0.608-3.5629 2.0465-8.2365 3.2034-10.374 1.1568-2.1379 2.1113-6.4131 2.1113-9.4814 0-3.97 0.9874-6.4982 3.4946-8.7256 1.9379-1.7214 4.0415-3.0918 4.5868-3.0918zm-398.68 22.192c2.1727-0.41291 5.0181 12.399 3.349 18.688-1.0077 3.7968-5.922 5.1685-7.863 2.1986-0.8462-1.2947 0.72212-9.9416 3.4219-19.169 0.3239-1.1075 0.68962-1.6411 1.0921-1.7176zm-223.73 7.2141c1.2331-0.15606 4.6599 2.2555 9.5374 6.7332 12.588 11.556 21.434 17.717 49.143 34.353l24.535 14.703-2.621 3.8475c-16.108 23.588-43.3 46.172-72.15 59.98l-8.3726 3.9849 5.3148 2.1299c2.9105 1.1356 12.556 3.2246 21.478 4.672 8.921 1.4474 23.173 4.903 31.67 7.695 30.466 10.01 83.151 28.836 84.017 30.024 1.47 2.0184-1.3368 17.526-4.7323 26.108-1.7553 4.4365-5.8781 11.892-9.1734 16.558-3.2953 4.6664-6.8909 9.1115-7.9357 9.8936-3.8959 2.9165-28.466-3.4806-50.745-13.26-19.085-8.3774-30.566-16.096-42.3-28.444-20.678-21.761-29.082-34.904-35.165-54.69-1.9057-6.1986-5.1612-13.616-7.1349-16.421-5.6942-8.0926-18.313-15.761-34.146-20.749-8.7321-2.7509-14.343-5.2641-14.343-6.4583 0-1.0777 2.9062-4.1152 6.4069-6.7332 3.5006-2.6179 9.435-7.4751 13.178-10.856 4.4481-4.0174 7.6922-5.8691 9.3919-5.359 1.4302 0.42928 3.7642 0.30369 5.1692-0.20611 6.4182-2.329 9.3649-18.283 4.5867-24.734-2.155-2.9094-2.1119-3.9169 0-10.787 2.6096-8.4886 6.0289-12.151 16.09-16.902 3.7677-1.7792 7.3367-3.9947 7.9357-4.8781 0.086212-0.12708 0.18787-0.18385 0.36404-0.20613zm773.26 3.0231c1.1408-0.056229 2.1774 1.4858 4.1499 5.7026 3.7688 8.0567 3.4236 19.773-0.72797 25.765-2.954 4.2635-10.07 5.1206-13.178 1.5802-1.5352-1.7492-1.2491-3.4638 1.2377-9.0004 1.689-3.7603 3.4968-10.174 4.077-14.291 0.5802-4.1168 2.0192-8.277 3.2034-9.2065 0.4408-0.34596 0.85742-0.53085 1.2376-0.54966zm-103.75 23.703c0.30432 0 3.378 1.3022 6.8437 2.8856 3.4662 1.5836 7.0018 2.8856 7.7901 2.8856 2.0425 1.39e-4 3.2762 3.6972 3.2762 9.8249 0 7.4735-2.4307 14.553-6.334 18.482-4.051 4.0775-4.4456 4.0664-9.1735 0.54963-6.7944-5.054-9.4265-19.977-5.1691-29.612 1.2132-2.7455 2.4626-5.0155 2.7666-5.0155zm-695.94 5.4964c1.3458 0.073942 2.8937 5.2313 2.9122 10.512 0.01593 4.5668-0.96182 7.7673-3.1306 10.374-3.1116 3.7408-6.6165 4.9209-8.0814 2.6795-0.64874-0.99247 6.1143-21.354 7.7173-23.222 0.1806-0.21057 0.3902-0.35413 0.58246-0.34355zm-327.4 11.405c0.063354 0 0.090515 0.003086 0.14551 0 0.15362 0.34661 0.18604 0.69875 0.14569 1.0993-0.75525-0.53984-0.7334-1.0993-0.2912-1.0993zm-27.884 55.377c-0.1701 0.70325-0.2677 1.2867-0.36408 1.7863-0.05603-0.77721 0.025024-1.4244 0.36408-1.7863zm1059.8 56.064c0.10608-0.034363 0.18256-0.019592 0.29117 0 0.40189 0.072479 0.8458 0.49733 1.3106 1.2367 0.74655 1.1877 5.6088 7.3206 10.848 13.604 19.917 23.886 33.044 44.861 34.51 55.377 1.7499 12.553-23.884 60.486-43.028 80.523-5.1942 5.4369-10.164 7.5179-11.867 4.878-6.6301-10.274-5.5156-61.425 2.985-131.71 2.0178-16.682 3.3612-23.394 4.9507-23.91zm-107.31 185.5c2.6662-0.10764 5.4994 0.22519 6.1156 1.168 0.44241 0.6766-0.76788 2.6175-2.6937 4.3284-3.394 3.0153-3.58 3.0544-6.0429 0.48096-1.3975-1.4603-2.5482-3.4012-2.5482-4.3284 0-0.96783 2.5031-1.5411 5.1692-1.649zm-808.28 258.88c0.028717-0.022827 0.041504-0.016907 0.072845 0 0.08316 0.045349 0.19546 0.20337 0.29117 0.54956 0.38296 1.3857 0.38296 3.6989 0 5.0843-0.38294 1.3857-0.72803 0.22894-0.72803-2.5422 0-1.8185 0.16248-2.9318 0.36401-3.0917zm-79.867 8.863h6.4796c11.412 0.038818 11.977 2.4873 2.1113 9.6874-6.8307 4.9849-8.5909 4.1762-8.5909-4.1911v-5.4963zm394.53 70.561 3.2034 7.5573c1.7977 4.1567 4.0008 8.0066 4.878 8.5881 0.87706 0.58191 4.807 1.0188 8.7366 1.0306l7.1349 0.0687 4.4411-8.6568 4.3683-8.588-13.323 4.3281-19.439-4.3281z" fill="#7f003f"/> </svg>